solid OpenSCAD_Model
  facet normal 0.471344 -0.88195 0
    outer loop
      vertex 41.3184 -4.61732 0
      vertex 41.7334 -4.39553 12.5
      vertex 41.3184 -4.61732 12.5
    endloop
  endfacet
  facet normal 0.471344 -0.88195 0
    outer loop
      vertex 41.7334 -4.39553 12.5
      vertex 41.3184 -4.61732 0
      vertex 41.7334 -4.39553 0
    endloop
  endfacet
  facet normal 0.634484 -0.772936 0
    outer loop
      vertex 41.7334 -4.39553 0
      vertex 42.097 -4.09706 12.5
      vertex 41.7334 -4.39553 12.5
    endloop
  endfacet
  facet normal 0.634484 -0.772936 0
    outer loop
      vertex 42.097 -4.09706 12.5
      vertex 41.7334 -4.39553 0
      vertex 42.097 -4.09706 0
    endloop
  endfacet
  facet normal -0.772994 -0.634413 0
    outer loop
      vertex 7.90294 -4.09706 0
      vertex 7.60446 -3.73338 12.5
      vertex 7.60446 -3.73338 0
    endloop
  endfacet
  facet normal -0.772994 -0.634413 0
    outer loop
      vertex 7.60446 -3.73338 12.5
      vertex 7.90294 -4.09706 0
      vertex 7.90294 -4.09706 12.5
    endloop
  endfacet
  facet normal 1 -0 0
    outer loop
      vertex 42.8 -2.40001 12.5
      vertex 42.8 -0.5 0
      vertex 42.8 -0.5 12.5
    endloop
  endfacet
  facet normal 1 0 0
    outer loop
      vertex 42.8 -0.5 0
      vertex 42.8 -2.40001 12.5
      vertex 42.8 -2.40001 0
    endloop
  endfacet
  facet normal 1 -0 0
    outer loop
      vertex 42.8 31 12.5
      vertex 42.8 42.9 0
      vertex 42.8 42.9 12.5
    endloop
  endfacet
  facet normal 1 0 0
    outer loop
      vertex 42.8 42.9 0
      vertex 42.8 31 12.5
      vertex 42.8 31 0
    endloop
  endfacet
  facet normal 0 -1 0
    outer loop
      vertex 22.9 -4.8 8.2
      vertex 27.1 -4.8 10.6
      vertex 22.9 -4.8 10.6
    endloop
  endfacet
  facet normal 0 -1 -0
    outer loop
      vertex 27.1 -4.8 10.6
      vertex 22.9 -4.8 8.2
      vertex 27.1 -4.8 8.2
    endloop
  endfacet
  facet normal 0 -1 0
    outer loop
      vertex 22.9 -4.8 10.6
      vertex 9.59999 -4.8 12.5
      vertex 14.1 -4.8 10.6
    endloop
  endfacet
  facet normal 0 -1 0
    outer loop
      vertex 9.59999 -4.8 12.5
      vertex 14.1 -4.8 8.2
      vertex 14.1 -4.8 10.6
    endloop
  endfacet
  facet normal 0 -1 0
    outer loop
      vertex 9.59999 -4.8 0
      vertex 22.9 -4.8 8.2
      vertex 14.1 -4.8 8.2
    endloop
  endfacet
  facet normal 0 -1 -0
    outer loop
      vertex 22.9 -4.8 8.2
      vertex 9.59999 -4.8 0
      vertex 27.1 -4.8 8.2
    endloop
  endfacet
  facet normal 0 -1 0
    outer loop
      vertex 40.4 -4.8 0
      vertex 27.1 -4.8 8.2
      vertex 9.59999 -4.8 0
    endloop
  endfacet
  facet normal 0 -1 0
    outer loop
      vertex 9.59999 -4.8 0
      vertex 14.1 -4.8 8.2
      vertex 9.59999 -4.8 12.5
    endloop
  endfacet
  facet normal 0 -1 0
    outer loop
      vertex 9.59999 -4.8 12.5
      vertex 22.9 -4.8 10.6
      vertex 40.4 -4.8 12.5
    endloop
  endfacet
  facet normal 0 -1 0
    outer loop
      vertex 27.1 -4.8 10.6
      vertex 40.4 -4.8 12.5
      vertex 22.9 -4.8 10.6
    endloop
  endfacet
  facet normal 0 -1 0
    outer loop
      vertex 35.9 -4.8 10.6
      vertex 40.4 -4.8 12.5
      vertex 27.1 -4.8 10.6
    endloop
  endfacet
  facet normal 0 -1 0
    outer loop
      vertex 35.9 -4.8 8.2
      vertex 40.4 -4.8 12.5
      vertex 35.9 -4.8 10.6
    endloop
  endfacet
  facet normal 0 -1 0
    outer loop
      vertex 35.9 -4.8 8.2
      vertex 40.4 -4.8 0
      vertex 40.4 -4.8 12.5
    endloop
  endfacet
  facet normal 0 -1 0
    outer loop
      vertex 27.1 -4.8 8.2
      vertex 40.4 -4.8 0
      vertex 35.9 -4.8 8.2
    endloop
  endfacet
  facet normal 0.956926 -0.290332 0
    outer loop
      vertex 42.6173 -3.31845 12.5
      vertex 42.7539 -2.86822 0
      vertex 42.7539 -2.86822 12.5
    endloop
  endfacet
  facet normal 0.956926 -0.290332 0
    outer loop
      vertex 42.7539 -2.86822 0
      vertex 42.6173 -3.31845 12.5
      vertex 42.6173 -3.31845 0
    endloop
  endfacet
  facet normal -0.995186 -0.0980073 0
    outer loop
      vertex 7.24611 -2.86822 0
      vertex 7.2 -2.40001 12.5
      vertex 7.2 -2.40001 0
    endloop
  endfacet
  facet normal -0.995186 -0.0980073 0
    outer loop
      vertex 7.2 -2.40001 12.5
      vertex 7.24611 -2.86822 0
      vertex 7.24611 -2.86822 12.5
    endloop
  endfacet
  facet normal 0 1 0
    outer loop
      vertex 14.9 45.3 12.5
      vertex 14.1 45.3 10.6
      vertex 9.59999 45.3 12.5
    endloop
  endfacet
  facet normal 0 1 0
    outer loop
      vertex 14.9 45.3 12.5
      vertex 14.1 45.3 8.2
      vertex 14.1 45.3 10.6
    endloop
  endfacet
  facet normal 0 1 0
    outer loop
      vertex 9.59999 45.3 0
      vertex 14.1 45.3 8.2
      vertex 14.9 45.3 0
    endloop
  endfacet
  facet normal 0 1 -0
    outer loop
      vertex 14.9 45.3 0
      vertex 14.1 45.3 8.2
      vertex 14.9 45.3 12.5
    endloop
  endfacet
  facet normal 0 1 -0
    outer loop
      vertex 9.7 45.3 10.6
      vertex 9.59999 45.3 12.5
      vertex 14.1 45.3 10.6
    endloop
  endfacet
  facet normal 0 1 -0
    outer loop
      vertex 9.7 45.3 8.2
      vertex 9.59999 45.3 12.5
      vertex 9.7 45.3 10.6
    endloop
  endfacet
  facet normal 0 1 0
    outer loop
      vertex 9.7 45.3 8.2
      vertex 9.59999 45.3 0
      vertex 9.59999 45.3 12.5
    endloop
  endfacet
  facet normal 0 1 0
    outer loop
      vertex 14.1 45.3 8.2
      vertex 9.59999 45.3 0
      vertex 9.7 45.3 8.2
    endloop
  endfacet
  facet normal 0 1 0
    outer loop
      vertex 35.9 45.3 10.6
      vertex 40.4 45.3 12.5
      vertex 40.3 45.3 10.6
    endloop
  endfacet
  facet normal 0 1 0
    outer loop
      vertex 40.4 45.3 12.5
      vertex 40.3 45.3 8.2
      vertex 40.3 45.3 10.6
    endloop
  endfacet
  facet normal 0 1 0
    outer loop
      vertex 40.3 45.3 8.2
      vertex 40.4 45.3 0
      vertex 35.9 45.3 8.2
    endloop
  endfacet
  facet normal 0 1 -0
    outer loop
      vertex 40.4 45.3 0
      vertex 40.3 45.3 8.2
      vertex 40.4 45.3 12.5
    endloop
  endfacet
  facet normal 0 1 0
    outer loop
      vertex 40.4 45.3 12.5
      vertex 35.9 45.3 10.6
      vertex 35.1 45.3 12.5
    endloop
  endfacet
  facet normal 0 1 -0
    outer loop
      vertex 35.9 45.3 8.2
      vertex 35.1 45.3 12.5
      vertex 35.9 45.3 10.6
    endloop
  endfacet
  facet normal 0 1 0
    outer loop
      vertex 35.9 45.3 8.2
      vertex 35.1 45.3 0
      vertex 35.1 45.3 12.5
    endloop
  endfacet
  facet normal 0 1 0
    outer loop
      vertex 35.1 45.3 0
      vertex 35.9 45.3 8.2
      vertex 40.4 45.3 0
    endloop
  endfacet
  facet normal 0.772973 -0.634438 0
    outer loop
      vertex 42.097 -4.09706 12.5
      vertex 42.3955 -3.73338 0
      vertex 42.3955 -3.73338 12.5
    endloop
  endfacet
  facet normal 0.772973 -0.634438 0
    outer loop
      vertex 42.3955 -3.73338 0
      vertex 42.097 -4.09706 12.5
      vertex 42.097 -4.09706 0
    endloop
  endfacet
  facet normal -0.290273 -0.956944 0
    outer loop
      vertex 8.68155 -4.61732 0
      vertex 9.13178 -4.75389 12.5
      vertex 8.68155 -4.61732 12.5
    endloop
  endfacet
  facet normal -0.290273 -0.956944 -0
    outer loop
      vertex 9.13178 -4.75389 12.5
      vertex 8.68155 -4.61732 0
      vertex 9.13178 -4.75389 0
    endloop
  endfacet
  facet normal -0.0980073 -0.995186 0
    outer loop
      vertex 9.13178 -4.75389 0
      vertex 9.59999 -4.8 12.5
      vertex 9.13178 -4.75389 12.5
    endloop
  endfacet
  facet normal -0.0980073 -0.995186 -0
    outer loop
      vertex 9.59999 -4.8 12.5
      vertex 9.13178 -4.75389 0
      vertex 9.59999 -4.8 0
    endloop
  endfacet
  facet normal -0.995185 0.0980094 0
    outer loop
      vertex 7.2 42.9 0
      vertex 7.24611 43.3682 12.5
      vertex 7.24611 43.3682 0
    endloop
  endfacet
  facet normal -0.995185 0.0980094 0
    outer loop
      vertex 7.24611 43.3682 12.5
      vertex 7.2 42.9 0
      vertex 7.2 42.9 12.5
    endloop
  endfacet
  facet normal -1 0 0
    outer loop
      vertex 7.2 31 0
      vertex 7.2 42.9 12.5
      vertex 7.2 42.9 0
    endloop
  endfacet
  facet normal -1 -0 0
    outer loop
      vertex 7.2 42.9 12.5
      vertex 7.2 31 0
      vertex 7.2 31 12.5
    endloop
  endfacet
  facet normal -1 0 0
    outer loop
      vertex 7.2 -2.40001 0
      vertex 7.2 -0.5 12.5
      vertex 7.2 -0.5 0
    endloop
  endfacet
  facet normal -1 -0 0
    outer loop
      vertex 7.2 -0.5 12.5
      vertex 7.2 -2.40001 0
      vertex 7.2 -2.40001 12.5
    endloop
  endfacet
  facet normal -0.881925 -0.471389 0
    outer loop
      vertex 7.60446 -3.73338 0
      vertex 7.38268 -3.31845 12.5
      vertex 7.38268 -3.31845 0
    endloop
  endfacet
  facet normal -0.881925 -0.471389 0
    outer loop
      vertex 7.38268 -3.31845 12.5
      vertex 7.60446 -3.73338 0
      vertex 7.60446 -3.73338 12.5
    endloop
  endfacet
  facet normal -0.471422 0.881908 0
    outer loop
      vertex 8.68155 45.1173 0
      vertex 8.26662 44.8955 12.5
      vertex 8.68155 45.1173 12.5
    endloop
  endfacet
  facet normal -0.471422 0.881908 0
    outer loop
      vertex 8.26662 44.8955 12.5
      vertex 8.68155 45.1173 0
      vertex 8.26662 44.8955 0
    endloop
  endfacet
  facet normal 0.0980094 -0.995185 0
    outer loop
      vertex 40.4 -4.8 0
      vertex 40.8682 -4.75389 12.5
      vertex 40.4 -4.8 12.5
    endloop
  endfacet
  facet normal 0.0980094 -0.995185 0
    outer loop
      vertex 40.8682 -4.75389 12.5
      vertex 40.4 -4.8 0
      vertex 40.8682 -4.75389 0
    endloop
  endfacet
  facet normal 0.290291 -0.956938 0
    outer loop
      vertex 40.8682 -4.75389 0
      vertex 41.3184 -4.61732 12.5
      vertex 40.8682 -4.75389 12.5
    endloop
  endfacet
  facet normal 0.290291 -0.956938 0
    outer loop
      vertex 41.3184 -4.61732 12.5
      vertex 40.8682 -4.75389 0
      vertex 41.3184 -4.61732 0
    endloop
  endfacet
  facet normal 0.0979884 0.995188 -0
    outer loop
      vertex 40.8682 45.2539 0
      vertex 40.4 45.3 12.5
      vertex 40.8682 45.2539 12.5
    endloop
  endfacet
  facet normal 0.0979884 0.995188 0
    outer loop
      vertex 40.4 45.3 12.5
      vertex 40.8682 45.2539 0
      vertex 40.4 45.3 0
    endloop
  endfacet
  facet normal -0.471405 -0.881917 0
    outer loop
      vertex 8.26662 -4.39553 0
      vertex 8.68155 -4.61732 12.5
      vertex 8.26662 -4.39553 12.5
    endloop
  endfacet
  facet normal -0.471405 -0.881917 -0
    outer loop
      vertex 8.68155 -4.61732 12.5
      vertex 8.26662 -4.39553 0
      vertex 8.68155 -4.61732 0
    endloop
  endfacet
  facet normal -0.881958 0.471327 0
    outer loop
      vertex 7.38268 43.8184 0
      vertex 7.60446 44.2334 12.5
      vertex 7.60446 44.2334 0
    endloop
  endfacet
  facet normal -0.881958 0.471327 0
    outer loop
      vertex 7.60446 44.2334 12.5
      vertex 7.38268 43.8184 0
      vertex 7.38268 43.8184 12.5
    endloop
  endfacet
  facet normal -0.956938 0.290291 0
    outer loop
      vertex 7.24611 43.3682 0
      vertex 7.38268 43.8184 12.5
      vertex 7.38268 43.8184 0
    endloop
  endfacet
  facet normal -0.956938 0.290291 0
    outer loop
      vertex 7.38268 43.8184 12.5
      vertex 7.24611 43.3682 0
      vertex 7.24611 43.3682 12.5
    endloop
  endfacet
  facet normal 0 0 1
    outer loop
      vertex 7.2 -2.40001 12.5
      vertex 9.2 -2.40001 12.5
      vertex 9.2 -0.5 12.5
    endloop
  endfacet
  facet normal 0 0 1
    outer loop
      vertex 9.2 -2.40001 12.5
      vertex 8.68155 -4.61732 12.5
      vertex 9.13178 -4.75389 12.5
    endloop
  endfacet
  facet normal 0 0 1
    outer loop
      vertex 9.2 -2.40001 12.5
      vertex 8.26662 -4.39553 12.5
      vertex 8.68155 -4.61732 12.5
    endloop
  endfacet
  facet normal 0 0 1
    outer loop
      vertex 9.2 -2.40001 12.5
      vertex 7.90294 -4.09706 12.5
      vertex 8.26662 -4.39553 12.5
    endloop
  endfacet
  facet normal 0 0 1
    outer loop
      vertex 9.2 -2.40001 12.5
      vertex 7.60446 -3.73338 12.5
      vertex 7.90294 -4.09706 12.5
    endloop
  endfacet
  facet normal 0 0 1
    outer loop
      vertex 9.2 -2.40001 12.5
      vertex 7.38268 -3.31845 12.5
      vertex 7.60446 -3.73338 12.5
    endloop
  endfacet
  facet normal 0 0 1
    outer loop
      vertex 9.2 -2.40001 12.5
      vertex 7.24611 -2.86822 12.5
      vertex 7.38268 -3.31845 12.5
    endloop
  endfacet
  facet normal 0 0 1
    outer loop
      vertex 7.2 -2.40001 12.5
      vertex 9.2 -0.5 12.5
      vertex 7.2 -0.5 12.5
    endloop
  endfacet
  facet normal 0 0 1
    outer loop
      vertex 9.2 -2.40001 12.5
      vertex 7.2 -2.40001 12.5
      vertex 7.24611 -2.86822 12.5
    endloop
  endfacet
  facet normal 0 0 1
    outer loop
      vertex 40.8 -2.40001 12.5
      vertex 42.8 -2.40001 12.5
      vertex 42.8 -0.5 12.5
    endloop
  endfacet
  facet normal 0 0 1
    outer loop
      vertex 42.8 -2.40001 12.5
      vertex 40.8 -2.40001 12.5
      vertex 42.7539 -2.86822 12.5
    endloop
  endfacet
  facet normal -0 0 1
    outer loop
      vertex 40.7923 -2.47804 12.5
      vertex 42.7539 -2.86822 12.5
      vertex 40.8 -2.40001 12.5
    endloop
  endfacet
  facet normal 0 0 1
    outer loop
      vertex 42.7539 -2.86822 12.5
      vertex 40.7923 -2.47804 12.5
      vertex 42.6173 -3.31845 12.5
    endloop
  endfacet
  facet normal -0 0 1
    outer loop
      vertex 40.7696 -2.55308 12.5
      vertex 42.6173 -3.31845 12.5
      vertex 40.7923 -2.47804 12.5
    endloop
  endfacet
  facet normal 0 0 1
    outer loop
      vertex 42.6173 -3.31845 12.5
      vertex 40.7696 -2.55308 12.5
      vertex 42.3955 -3.73338 12.5
    endloop
  endfacet
  facet normal 0 0 1
    outer loop
      vertex 42.3955 -3.73338 12.5
      vertex 40.7326 -2.62223 12.5
      vertex 42.097 -4.09706 12.5
    endloop
  endfacet
  facet normal 0 0 1
    outer loop
      vertex 40.8 -2.40001 12.5
      vertex 42.8 -0.5 12.5
      vertex 40.8 -0.5 12.5
    endloop
  endfacet
  facet normal -0 0 1
    outer loop
      vertex 40.7326 -2.62223 12.5
      vertex 42.3955 -3.73338 12.5
      vertex 40.7696 -2.55308 12.5
    endloop
  endfacet
  facet normal -0 0 1
    outer loop
      vertex 40.6828 -2.68284 12.5
      vertex 42.097 -4.09706 12.5
      vertex 40.7326 -2.62223 12.5
    endloop
  endfacet
  facet normal 0 0 1
    outer loop
      vertex 42.097 -4.09706 12.5
      vertex 40.6828 -2.68284 12.5
      vertex 41.7334 -4.39553 12.5
    endloop
  endfacet
  facet normal -0 0 1
    outer loop
      vertex 40.6222 -2.73259 12.5
      vertex 41.7334 -4.39553 12.5
      vertex 40.6828 -2.68284 12.5
    endloop
  endfacet
  facet normal 0 0 1
    outer loop
      vertex 41.7334 -4.39553 12.5
      vertex 40.6222 -2.73259 12.5
      vertex 41.3184 -4.61732 12.5
    endloop
  endfacet
  facet normal -0 0 1
    outer loop
      vertex 40.5531 -2.76956 12.5
      vertex 41.3184 -4.61732 12.5
      vertex 40.6222 -2.73259 12.5
    endloop
  endfacet
  facet normal 0 0 1
    outer loop
      vertex 41.3184 -4.61732 12.5
      vertex 40.5531 -2.76956 12.5
      vertex 40.8682 -4.75389 12.5
    endloop
  endfacet
  facet normal -0 0 1
    outer loop
      vertex 40.478 -2.79232 12.5
      vertex 40.8682 -4.75389 12.5
      vertex 40.5531 -2.76956 12.5
    endloop
  endfacet
  facet normal -0 0 1
    outer loop
      vertex 40.4 -2.8 12.5
      vertex 40.8682 -4.75389 12.5
      vertex 40.478 -2.79232 12.5
    endloop
  endfacet
  facet normal 0 0 1
    outer loop
      vertex 40.4 -2.8 12.5
      vertex 40.4 -4.8 12.5
      vertex 40.8682 -4.75389 12.5
    endloop
  endfacet
  facet normal -0 0 1
    outer loop
      vertex 9.59999 -2.8 12.5
      vertex 40.4 -4.8 12.5
      vertex 40.4 -2.8 12.5
    endloop
  endfacet
  facet normal 0 0 1
    outer loop
      vertex 9.59999 -2.8 12.5
      vertex 9.59999 -4.8 12.5
      vertex 40.4 -4.8 12.5
    endloop
  endfacet
  facet normal 0 0 1
    outer loop
      vertex 9.52196 -2.79232 12.5
      vertex 9.59999 -4.8 12.5
      vertex 9.59999 -2.8 12.5
    endloop
  endfacet
  facet normal 0 0 1
    outer loop
      vertex 9.13178 -4.75389 12.5
      vertex 9.52196 -2.79232 12.5
      vertex 9.44692 -2.76956 12.5
    endloop
  endfacet
  facet normal 0 0 1
    outer loop
      vertex 9.13178 -4.75389 12.5
      vertex 9.44692 -2.76956 12.5
      vertex 9.37776 -2.73259 12.5
    endloop
  endfacet
  facet normal 0 0 1
    outer loop
      vertex 9.13178 -4.75389 12.5
      vertex 9.37776 -2.73259 12.5
      vertex 9.31716 -2.68284 12.5
    endloop
  endfacet
  facet normal 0 0 1
    outer loop
      vertex 9.13178 -4.75389 12.5
      vertex 9.31716 -2.68284 12.5
      vertex 9.26741 -2.62223 12.5
    endloop
  endfacet
  facet normal 0 0 1
    outer loop
      vertex 9.13178 -4.75389 12.5
      vertex 9.26741 -2.62223 12.5
      vertex 9.23044 -2.55308 12.5
    endloop
  endfacet
  facet normal 0 0 1
    outer loop
      vertex 9.13178 -4.75389 12.5
      vertex 9.23044 -2.55308 12.5
      vertex 9.20767 -2.47804 12.5
    endloop
  endfacet
  facet normal 0 0 1
    outer loop
      vertex 9.52196 -2.79232 12.5
      vertex 9.13178 -4.75389 12.5
      vertex 9.59999 -4.8 12.5
    endloop
  endfacet
  facet normal 0 0 1
    outer loop
      vertex 9.13178 -4.75389 12.5
      vertex 9.20767 -2.47804 12.5
      vertex 9.2 -2.40001 12.5
    endloop
  endfacet
  facet normal -0 0 1
    outer loop
      vertex 9.59999 45.3 12.5
      vertex 14.9 43.3 12.5
      vertex 14.9 45.3 12.5
    endloop
  endfacet
  facet normal 0 0 1
    outer loop
      vertex 9.59999 45.3 12.5
      vertex 9.59999 43.3 12.5
      vertex 14.9 43.3 12.5
    endloop
  endfacet
  facet normal 0 0 1
    outer loop
      vertex 9.59999 45.3 12.5
      vertex 9.52196 43.2923 12.5
      vertex 9.59999 43.3 12.5
    endloop
  endfacet
  facet normal -0 0 1
    outer loop
      vertex 9.13178 45.2539 12.5
      vertex 9.52196 43.2923 12.5
      vertex 9.59999 45.3 12.5
    endloop
  endfacet
  facet normal 0 0 1
    outer loop
      vertex 9.52196 43.2923 12.5
      vertex 9.13178 45.2539 12.5
      vertex 9.44692 43.2696 12.5
    endloop
  endfacet
  facet normal -0 0 1
    outer loop
      vertex 8.68155 45.1173 12.5
      vertex 9.44692 43.2696 12.5
      vertex 9.13178 45.2539 12.5
    endloop
  endfacet
  facet normal 0 0 1
    outer loop
      vertex 9.44692 43.2696 12.5
      vertex 8.68155 45.1173 12.5
      vertex 9.37776 43.2326 12.5
    endloop
  endfacet
  facet normal -0 0 1
    outer loop
      vertex 8.26662 44.8955 12.5
      vertex 9.37776 43.2326 12.5
      vertex 8.68155 45.1173 12.5
    endloop
  endfacet
  facet normal 0 0 1
    outer loop
      vertex 9.37776 43.2326 12.5
      vertex 8.26662 44.8955 12.5
      vertex 9.31716 43.1828 12.5
    endloop
  endfacet
  facet normal -0 0 1
    outer loop
      vertex 7.90294 44.597 12.5
      vertex 9.31716 43.1828 12.5
      vertex 8.26662 44.8955 12.5
    endloop
  endfacet
  facet normal 0 0 1
    outer loop
      vertex 9.31716 43.1828 12.5
      vertex 7.90294 44.597 12.5
      vertex 9.26741 43.1222 12.5
    endloop
  endfacet
  facet normal -0 0 1
    outer loop
      vertex 7.60446 44.2334 12.5
      vertex 9.26741 43.1222 12.5
      vertex 7.90294 44.597 12.5
    endloop
  endfacet
  facet normal 0 0 1
    outer loop
      vertex 9.26741 43.1222 12.5
      vertex 7.60446 44.2334 12.5
      vertex 9.23044 43.0531 12.5
    endloop
  endfacet
  facet normal -0 0 1
    outer loop
      vertex 7.38268 43.8184 12.5
      vertex 9.23044 43.0531 12.5
      vertex 7.60446 44.2334 12.5
    endloop
  endfacet
  facet normal 0 0 1
    outer loop
      vertex 9.23044 43.0531 12.5
      vertex 7.38268 43.8184 12.5
      vertex 9.20767 42.978 12.5
    endloop
  endfacet
  facet normal -0 0 1
    outer loop
      vertex 7.24611 43.3682 12.5
      vertex 9.20767 42.978 12.5
      vertex 7.38268 43.8184 12.5
    endloop
  endfacet
  facet normal 0 0 1
    outer loop
      vertex 9.20767 42.978 12.5
      vertex 7.24611 43.3682 12.5
      vertex 9.2 42.9 12.5
    endloop
  endfacet
  facet normal 0 0 1
    outer loop
      vertex 9.2 42.9 12.5
      vertex 7.24611 43.3682 12.5
      vertex 7.2 42.9 12.5
    endloop
  endfacet
  facet normal 0 0 1
    outer loop
      vertex 9.2 42.9 12.5
      vertex 7.2 42.9 12.5
      vertex 9.2 31 12.5
    endloop
  endfacet
  facet normal 0 0 1
    outer loop
      vertex 9.2 31 12.5
      vertex 7.2 42.9 12.5
      vertex 7.2 31 12.5
    endloop
  endfacet
  facet normal 0 0 1
    outer loop
      vertex 42.7539 43.3682 12.5
      vertex 40.7923 42.978 12.5
      vertex 40.8 42.9 12.5
    endloop
  endfacet
  facet normal 0 0 1
    outer loop
      vertex 41.3184 45.1173 12.5
      vertex 40.7696 43.0531 12.5
      vertex 40.7923 42.978 12.5
    endloop
  endfacet
  facet normal 0 0 1
    outer loop
      vertex 41.3184 45.1173 12.5
      vertex 40.7326 43.1222 12.5
      vertex 40.7696 43.0531 12.5
    endloop
  endfacet
  facet normal 0 0 1
    outer loop
      vertex 41.3184 45.1173 12.5
      vertex 40.6828 43.1828 12.5
      vertex 40.7326 43.1222 12.5
    endloop
  endfacet
  facet normal 0 0 1
    outer loop
      vertex 41.3184 45.1173 12.5
      vertex 40.6222 43.2326 12.5
      vertex 40.6828 43.1828 12.5
    endloop
  endfacet
  facet normal 0 0 1
    outer loop
      vertex 41.3184 45.1173 12.5
      vertex 40.5531 43.2696 12.5
      vertex 40.6222 43.2326 12.5
    endloop
  endfacet
  facet normal 0 0 1
    outer loop
      vertex 40.8682 45.2539 12.5
      vertex 40.478 43.2923 12.5
      vertex 40.5531 43.2696 12.5
    endloop
  endfacet
  facet normal 0 0 1
    outer loop
      vertex 40.4 45.3 12.5
      vertex 40.478 43.2923 12.5
      vertex 40.8682 45.2539 12.5
    endloop
  endfacet
  facet normal 0 0 1
    outer loop
      vertex 40.4 45.3 12.5
      vertex 40.4 43.3 12.5
      vertex 40.478 43.2923 12.5
    endloop
  endfacet
  facet normal -0 0 1
    outer loop
      vertex 35.1 45.3 12.5
      vertex 40.4 43.3 12.5
      vertex 40.4 45.3 12.5
    endloop
  endfacet
  facet normal 0 0 1
    outer loop
      vertex 40.4 43.3 12.5
      vertex 35.1 45.3 12.5
      vertex 35.1 43.3 12.5
    endloop
  endfacet
  facet normal 0 0 1
    outer loop
      vertex 40.8 42.9 12.5
      vertex 42.8 42.9 12.5
      vertex 42.7539 43.3682 12.5
    endloop
  endfacet
  facet normal 0 0 1
    outer loop
      vertex 40.7923 42.978 12.5
      vertex 42.7539 43.3682 12.5
      vertex 42.6173 43.8184 12.5
    endloop
  endfacet
  facet normal 0 0 1
    outer loop
      vertex 40.7923 42.978 12.5
      vertex 42.6173 43.8184 12.5
      vertex 42.3955 44.2334 12.5
    endloop
  endfacet
  facet normal 0 0 1
    outer loop
      vertex 40.7923 42.978 12.5
      vertex 42.3955 44.2334 12.5
      vertex 42.097 44.597 12.5
    endloop
  endfacet
  facet normal 0 0 1
    outer loop
      vertex 40.7923 42.978 12.5
      vertex 42.097 44.597 12.5
      vertex 41.7334 44.8955 12.5
    endloop
  endfacet
  facet normal 0 0 1
    outer loop
      vertex 40.7923 42.978 12.5
      vertex 41.7334 44.8955 12.5
      vertex 41.3184 45.1173 12.5
    endloop
  endfacet
  facet normal 0 0 1
    outer loop
      vertex 40.5531 43.2696 12.5
      vertex 41.3184 45.1173 12.5
      vertex 40.8682 45.2539 12.5
    endloop
  endfacet
  facet normal 0 0 1
    outer loop
      vertex 42.8 42.9 12.5
      vertex 40.8 42.9 12.5
      vertex 42.8 31 12.5
    endloop
  endfacet
  facet normal 0 0 1
    outer loop
      vertex 42.8 31 12.5
      vertex 40.8 42.9 12.5
      vertex 40.8 31 12.5
    endloop
  endfacet
  facet normal 0 0 -1
    outer loop
      vertex 40.4 -4.8 0
      vertex 42.8 -2.40001 0
      vertex 42.7539 -2.86822 0
    endloop
  endfacet
  facet normal 0 0 -1
    outer loop
      vertex 40.4 -4.8 0
      vertex 42.7539 -2.86822 0
      vertex 42.6173 -3.31845 0
    endloop
  endfacet
  facet normal 0 0 -1
    outer loop
      vertex 40.4 -4.8 0
      vertex 42.6173 -3.31845 0
      vertex 42.3955 -3.73338 0
    endloop
  endfacet
  facet normal 0 0 -1
    outer loop
      vertex 40.4 -4.8 0
      vertex 42.3955 -3.73338 0
      vertex 42.097 -4.09706 0
    endloop
  endfacet
  facet normal 0 0 -1
    outer loop
      vertex 40.4 -4.8 0
      vertex 42.097 -4.09706 0
      vertex 41.7334 -4.39553 0
    endloop
  endfacet
  facet normal 0 0 -1
    outer loop
      vertex 40.4 -4.8 0
      vertex 41.7334 -4.39553 0
      vertex 41.3184 -4.61732 0
    endloop
  endfacet
  facet normal 0 0 -1
    outer loop
      vertex 40.4 -4.8 0
      vertex 41.3184 -4.61732 0
      vertex 40.8682 -4.75389 0
    endloop
  endfacet
  facet normal 0 0 -1
    outer loop
      vertex 36.3 -0.5 0
      vertex 42.8 -2.40001 0
      vertex 40.4 -4.8 0
    endloop
  endfacet
  facet normal 0 0 -1
    outer loop
      vertex 42.8 -2.40001 0
      vertex 36.3 -0.5 0
      vertex 42.8 -0.5 0
    endloop
  endfacet
  facet normal 0 0 -1
    outer loop
      vertex 36.3 -0.5 0
      vertex 20.6 0.2 0
      vertex 36.3 0.2 0
    endloop
  endfacet
  facet normal 0 0 -1
    outer loop
      vertex 40.4 -4.8 0
      vertex 20.6 0.2 0
      vertex 36.3 -0.5 0
    endloop
  endfacet
  facet normal 0 0 -1
    outer loop
      vertex 12.7 -0.5 0
      vertex 20.6 19.8 0
      vertex 20.6 0.2 0
    endloop
  endfacet
  facet normal 0 0 -1
    outer loop
      vertex 20.6 19.8 0
      vertex 12.7 31 0
      vertex 16.1 33.8 0
    endloop
  endfacet
  facet normal -0 0 -1
    outer loop
      vertex 16.1 33.8 0
      vertex 12.7 31 0
      vertex 15.8659 33.8231 0
    endloop
  endfacet
  facet normal -0 0 -1
    outer loop
      vertex 15.8659 33.8231 0
      vertex 12.7 31 0
      vertex 15.6408 33.8913 0
    endloop
  endfacet
  facet normal -0 0 -1
    outer loop
      vertex 15.6408 33.8913 0
      vertex 12.7 31 0
      vertex 15.4333 34.0022 0
    endloop
  endfacet
  facet normal -0 0 -1
    outer loop
      vertex 15.4333 34.0022 0
      vertex 12.7 31 0
      vertex 15.2515 34.1515 0
    endloop
  endfacet
  facet normal -0 0 -1
    outer loop
      vertex 15.2515 34.1515 0
      vertex 12.7 31 0
      vertex 15.1022 34.3333 0
    endloop
  endfacet
  facet normal -0 0 -1
    outer loop
      vertex 15.1022 34.3333 0
      vertex 12.7 31 0
      vertex 14.9913 34.5408 0
    endloop
  endfacet
  facet normal -0 0 -1
    outer loop
      vertex 14.9231 34.7659 0
      vertex 12.7 31 0
      vertex 14.9 35 0
    endloop
  endfacet
  facet normal -0 0 -1
    outer loop
      vertex 14.9913 34.5408 0
      vertex 12.7 31 0
      vertex 14.9231 34.7659 0
    endloop
  endfacet
  facet normal -0 0 -1
    outer loop
      vertex 20.6 19.8 0
      vertex 12.7 -0.5 0
      vertex 12.7 31 0
    endloop
  endfacet
  facet normal 0 0 -1
    outer loop
      vertex 9.59999 -4.8 0
      vertex 20.6 0.2 0
      vertex 40.4 -4.8 0
    endloop
  endfacet
  facet normal 0 0 -1
    outer loop
      vertex 20.6 0.2 0
      vertex 9.59999 -4.8 0
      vertex 12.7 -0.5 0
    endloop
  endfacet
  facet normal 0 0 -1
    outer loop
      vertex 7.2 -2.40001 0
      vertex 9.59999 -4.8 0
      vertex 9.13178 -4.75389 0
    endloop
  endfacet
  facet normal 0 0 -1
    outer loop
      vertex 7.2 -2.40001 0
      vertex 9.13178 -4.75389 0
      vertex 8.68155 -4.61732 0
    endloop
  endfacet
  facet normal 0 0 -1
    outer loop
      vertex 7.2 -2.40001 0
      vertex 8.68155 -4.61732 0
      vertex 8.26662 -4.39553 0
    endloop
  endfacet
  facet normal 0 0 -1
    outer loop
      vertex 7.2 -2.40001 0
      vertex 8.26662 -4.39553 0
      vertex 7.90294 -4.09706 0
    endloop
  endfacet
  facet normal 0 0 -1
    outer loop
      vertex 7.2 -2.40001 0
      vertex 7.90294 -4.09706 0
      vertex 7.60446 -3.73338 0
    endloop
  endfacet
  facet normal 0 0 -1
    outer loop
      vertex 7.2 -2.40001 0
      vertex 7.60446 -3.73338 0
      vertex 7.38268 -3.31845 0
    endloop
  endfacet
  facet normal 0 0 -1
    outer loop
      vertex 7.2 -2.40001 0
      vertex 7.38268 -3.31845 0
      vertex 7.24611 -2.86822 0
    endloop
  endfacet
  facet normal 0 0 -1
    outer loop
      vertex 9.59999 -4.8 0
      vertex 7.2 -2.40001 0
      vertex 12.7 -0.5 0
    endloop
  endfacet
  facet normal -0 0 -1
    outer loop
      vertex 12.7 -0.5 0
      vertex 7.2 -2.40001 0
      vertex 7.2 -0.5 0
    endloop
  endfacet
  facet normal 0 0 -1
    outer loop
      vertex 20.6 19.8 0
      vertex 36.3 31 0
      vertex 36.3 19.8 0
    endloop
  endfacet
  facet normal 0 0 -1
    outer loop
      vertex 36.3 31 0
      vertex 35.0769 34.7659 0
      vertex 35.1 35 0
    endloop
  endfacet
  facet normal 0 0 -1
    outer loop
      vertex 36.3 31 0
      vertex 35.0087 34.5408 0
      vertex 35.0769 34.7659 0
    endloop
  endfacet
  facet normal 0 0 -1
    outer loop
      vertex 36.3 31 0
      vertex 34.8978 34.3333 0
      vertex 35.0087 34.5408 0
    endloop
  endfacet
  facet normal 0 0 -1
    outer loop
      vertex 36.3 31 0
      vertex 34.7485 34.1515 0
      vertex 34.8978 34.3333 0
    endloop
  endfacet
  facet normal 0 0 -1
    outer loop
      vertex 36.3 31 0
      vertex 34.5667 34.0022 0
      vertex 34.7485 34.1515 0
    endloop
  endfacet
  facet normal 0 0 -1
    outer loop
      vertex 36.3 31 0
      vertex 34.3592 33.8913 0
      vertex 34.5667 34.0022 0
    endloop
  endfacet
  facet normal 0 0 -1
    outer loop
      vertex 36.3 31 0
      vertex 34.1341 33.8231 0
      vertex 34.3592 33.8913 0
    endloop
  endfacet
  facet normal 0 0 -1
    outer loop
      vertex 36.3 31 0
      vertex 33.9 33.8 0
      vertex 34.1341 33.8231 0
    endloop
  endfacet
  facet normal -0 0 -1
    outer loop
      vertex 36.3 31 0
      vertex 20.6 19.8 0
      vertex 33.9 33.8 0
    endloop
  endfacet
  facet normal -0 0 -1
    outer loop
      vertex 33.9 33.8 0
      vertex 20.6 19.8 0
      vertex 16.1 33.8 0
    endloop
  endfacet
  facet normal 0 0 -1
    outer loop
      vertex 35.1 35 0
      vertex 42.8 42.9 0
      vertex 42.8 31 0
    endloop
  endfacet
  facet normal 0 0 -1
    outer loop
      vertex 35.1 45.3 0
      vertex 42.8 42.9 0
      vertex 35.1 35 0
    endloop
  endfacet
  facet normal 0 0 -1
    outer loop
      vertex 42.8 42.9 0
      vertex 40.4 45.3 0
      vertex 42.7539 43.3682 0
    endloop
  endfacet
  facet normal 0 0 -1
    outer loop
      vertex 42.7539 43.3682 0
      vertex 40.4 45.3 0
      vertex 42.6173 43.8184 0
    endloop
  endfacet
  facet normal 0 0 -1
    outer loop
      vertex 42.6173 43.8184 0
      vertex 40.4 45.3 0
      vertex 42.3955 44.2334 0
    endloop
  endfacet
  facet normal 0 0 -1
    outer loop
      vertex 42.3955 44.2334 0
      vertex 40.4 45.3 0
      vertex 42.097 44.597 0
    endloop
  endfacet
  facet normal 0 0 -1
    outer loop
      vertex 42.097 44.597 0
      vertex 40.4 45.3 0
      vertex 41.7334 44.8955 0
    endloop
  endfacet
  facet normal 0 0 -1
    outer loop
      vertex 41.7334 44.8955 0
      vertex 40.4 45.3 0
      vertex 41.3184 45.1173 0
    endloop
  endfacet
  facet normal 0 0 -1
    outer loop
      vertex 35.1 35 0
      vertex 42.8 31 0
      vertex 36.3 31 0
    endloop
  endfacet
  facet normal 0 0 -1
    outer loop
      vertex 41.3184 45.1173 0
      vertex 40.4 45.3 0
      vertex 40.8682 45.2539 0
    endloop
  endfacet
  facet normal 0 0 -1
    outer loop
      vertex 42.8 42.9 0
      vertex 35.1 45.3 0
      vertex 40.4 45.3 0
    endloop
  endfacet
  facet normal 0 0 -1
    outer loop
      vertex 7.2 31 0
      vertex 14.9 35 0
      vertex 12.7 31 0
    endloop
  endfacet
  facet normal 0 0 -1
    outer loop
      vertex 14.9 35 0
      vertex 7.2 42.9 0
      vertex 14.9 45.3 0
    endloop
  endfacet
  facet normal -0 0 -1
    outer loop
      vertex 14.9 45.3 0
      vertex 7.2 42.9 0
      vertex 9.59999 45.3 0
    endloop
  endfacet
  facet normal 0 0 -1
    outer loop
      vertex 9.59999 45.3 0
      vertex 7.2 42.9 0
      vertex 9.13178 45.2539 0
    endloop
  endfacet
  facet normal 0 0 -1
    outer loop
      vertex 9.13178 45.2539 0
      vertex 7.2 42.9 0
      vertex 8.68155 45.1173 0
    endloop
  endfacet
  facet normal 0 0 -1
    outer loop
      vertex 8.68155 45.1173 0
      vertex 7.2 42.9 0
      vertex 8.26662 44.8955 0
    endloop
  endfacet
  facet normal 0 0 -1
    outer loop
      vertex 8.26662 44.8955 0
      vertex 7.2 42.9 0
      vertex 7.90294 44.597 0
    endloop
  endfacet
  facet normal 0 0 -1
    outer loop
      vertex 7.90294 44.597 0
      vertex 7.2 42.9 0
      vertex 7.60446 44.2334 0
    endloop
  endfacet
  facet normal 0 0 -1
    outer loop
      vertex 7.60446 44.2334 0
      vertex 7.2 42.9 0
      vertex 7.38268 43.8184 0
    endloop
  endfacet
  facet normal -0 0 -1
    outer loop
      vertex 14.9 35 0
      vertex 7.2 31 0
      vertex 7.2 42.9 0
    endloop
  endfacet
  facet normal 0 0 -1
    outer loop
      vertex 7.38268 43.8184 0
      vertex 7.2 42.9 0
      vertex 7.24611 43.3682 0
    endloop
  endfacet
  facet normal 0.881941 0.47136 0
    outer loop
      vertex 42.6173 43.8184 12.5
      vertex 42.3955 44.2334 0
      vertex 42.3955 44.2334 12.5
    endloop
  endfacet
  facet normal 0.881941 0.47136 0
    outer loop
      vertex 42.3955 44.2334 0
      vertex 42.6173 43.8184 12.5
      vertex 42.6173 43.8184 0
    endloop
  endfacet
  facet normal -0.6344 -0.773005 0
    outer loop
      vertex 7.90294 -4.09706 0
      vertex 8.26662 -4.39553 12.5
      vertex 7.90294 -4.09706 12.5
    endloop
  endfacet
  facet normal -0.6344 -0.773005 -0
    outer loop
      vertex 8.26662 -4.39553 12.5
      vertex 7.90294 -4.09706 0
      vertex 8.26662 -4.39553 0
    endloop
  endfacet
  facet normal -0.772926 0.634496 0
    outer loop
      vertex 7.60446 44.2334 0
      vertex 7.90294 44.597 12.5
      vertex 7.90294 44.597 0
    endloop
  endfacet
  facet normal -0.772926 0.634496 0
    outer loop
      vertex 7.90294 44.597 12.5
      vertex 7.60446 44.2334 0
      vertex 7.60446 44.2334 12.5
    endloop
  endfacet
  facet normal -0.634438 0.772973 0
    outer loop
      vertex 8.26662 44.8955 0
      vertex 7.90294 44.597 12.5
      vertex 8.26662 44.8955 12.5
    endloop
  endfacet
  facet normal -0.634438 0.772973 0
    outer loop
      vertex 7.90294 44.597 12.5
      vertex 8.26662 44.8955 0
      vertex 7.90294 44.597 0
    endloop
  endfacet
  facet normal -0.956944 -0.290273 0
    outer loop
      vertex 7.38268 -3.31845 0
      vertex 7.24611 -2.86822 12.5
      vertex 7.24611 -2.86822 0
    endloop
  endfacet
  facet normal -0.956944 -0.290273 0
    outer loop
      vertex 7.24611 -2.86822 12.5
      vertex 7.38268 -3.31845 0
      vertex 7.38268 -3.31845 12.5
    endloop
  endfacet
  facet normal -0.290332 0.956926 0
    outer loop
      vertex 9.13178 45.2539 0
      vertex 8.68155 45.1173 12.5
      vertex 9.13178 45.2539 12.5
    endloop
  endfacet
  facet normal -0.290332 0.956926 0
    outer loop
      vertex 8.68155 45.1173 12.5
      vertex 9.13178 45.2539 0
      vertex 8.68155 45.1173 0
    endloop
  endfacet
  facet normal -0.0979863 0.995188 0
    outer loop
      vertex 9.59999 45.3 0
      vertex 9.13178 45.2539 12.5
      vertex 9.59999 45.3 12.5
    endloop
  endfacet
  facet normal -0.0979863 0.995188 0
    outer loop
      vertex 9.13178 45.2539 12.5
      vertex 9.59999 45.3 0
      vertex 9.13178 45.2539 0
    endloop
  endfacet
  facet normal 0.29035 0.956921 -0
    outer loop
      vertex 41.3184 45.1173 0
      vertex 40.8682 45.2539 12.5
      vertex 41.3184 45.1173 12.5
    endloop
  endfacet
  facet normal 0.29035 0.956921 0
    outer loop
      vertex 40.8682 45.2539 12.5
      vertex 41.3184 45.1173 0
      vertex 40.8682 45.2539 0
    endloop
  endfacet
  facet normal 0.47136 0.881941 -0
    outer loop
      vertex 41.7334 44.8955 0
      vertex 41.3184 45.1173 12.5
      vertex 41.7334 44.8955 12.5
    endloop
  endfacet
  facet normal 0.47136 0.881941 0
    outer loop
      vertex 41.3184 45.1173 12.5
      vertex 41.7334 44.8955 0
      vertex 41.3184 45.1173 0
    endloop
  endfacet
  facet normal 0.634522 0.772905 -0
    outer loop
      vertex 42.097 44.597 0
      vertex 41.7334 44.8955 12.5
      vertex 42.097 44.597 12.5
    endloop
  endfacet
  facet normal 0.634522 0.772905 0
    outer loop
      vertex 41.7334 44.8955 12.5
      vertex 42.097 44.597 0
      vertex 41.7334 44.8955 0
    endloop
  endfacet
  facet normal 0.956921 0.29035 0
    outer loop
      vertex 42.7539 43.3682 12.5
      vertex 42.6173 43.8184 0
      vertex 42.6173 43.8184 12.5
    endloop
  endfacet
  facet normal 0.956921 0.29035 0
    outer loop
      vertex 42.6173 43.8184 0
      vertex 42.7539 43.3682 12.5
      vertex 42.7539 43.3682 0
    endloop
  endfacet
  facet normal 0.995188 0.0979884 0
    outer loop
      vertex 42.8 42.9 12.5
      vertex 42.7539 43.3682 0
      vertex 42.7539 43.3682 12.5
    endloop
  endfacet
  facet normal 0.995188 0.0979884 0
    outer loop
      vertex 42.7539 43.3682 0
      vertex 42.8 42.9 12.5
      vertex 42.8 42.9 0
    endloop
  endfacet
  facet normal 0.772905 0.634522 0
    outer loop
      vertex 42.3955 44.2334 12.5
      vertex 42.097 44.597 0
      vertex 42.097 44.597 12.5
    endloop
  endfacet
  facet normal 0.772905 0.634522 0
    outer loop
      vertex 42.097 44.597 0
      vertex 42.3955 44.2334 12.5
      vertex 42.3955 44.2334 0
    endloop
  endfacet
  facet normal 0.995188 -0.0979863 0
    outer loop
      vertex 42.7539 -2.86822 12.5
      vertex 42.8 -2.40001 0
      vertex 42.8 -2.40001 12.5
    endloop
  endfacet
  facet normal 0.995188 -0.0979863 0
    outer loop
      vertex 42.8 -2.40001 0
      vertex 42.7539 -2.86822 12.5
      vertex 42.7539 -2.86822 0
    endloop
  endfacet
  facet normal 0.881908 -0.471422 0
    outer loop
      vertex 42.3955 -3.73338 12.5
      vertex 42.6173 -3.31845 0
      vertex 42.6173 -3.31845 12.5
    endloop
  endfacet
  facet normal 0.881908 -0.471422 0
    outer loop
      vertex 42.6173 -3.31845 0
      vertex 42.3955 -3.73338 12.5
      vertex 42.3955 -3.73338 0
    endloop
  endfacet
  facet normal -0.0979877 0.995188 0
    outer loop
      vertex 40.478 -2.79232 2
      vertex 40.4 -2.8 12.5
      vertex 40.478 -2.79232 12.5
    endloop
  endfacet
  facet normal -0.0979877 0.995188 0
    outer loop
      vertex 40.4 -2.8 12.5
      vertex 40.478 -2.79232 2
      vertex 40.4 -2.8 2
    endloop
  endfacet
  facet normal -0.290036 0.957016 0
    outer loop
      vertex 40.5531 -2.76956 2
      vertex 40.478 -2.79232 12.5
      vertex 40.5531 -2.76956 12.5
    endloop
  endfacet
  facet normal -0.290036 0.957016 0
    outer loop
      vertex 40.478 -2.79232 12.5
      vertex 40.5531 -2.76956 2
      vertex 40.478 -2.79232 2
    endloop
  endfacet
  facet normal 0.098203 -0.995166 0
    outer loop
      vertex 9.52196 43.2923 2
      vertex 9.59999 43.3 12.5
      vertex 9.52196 43.2923 12.5
    endloop
  endfacet
  facet normal 0.098203 -0.995166 0
    outer loop
      vertex 9.59999 43.3 12.5
      vertex 9.52196 43.2923 2
      vertex 9.59999 43.3 2
    endloop
  endfacet
  facet normal -0.0982404 -0.995163 0
    outer loop
      vertex 40.4 43.3 2
      vertex 40.478 43.2923 12.5
      vertex 40.4 43.3 12.5
    endloop
  endfacet
  facet normal -0.0982404 -0.995163 -0
    outer loop
      vertex 40.478 43.2923 12.5
      vertex 40.4 43.3 2
      vertex 40.478 43.2923 2
    endloop
  endfacet
  facet normal 0 1 -0
    outer loop
      vertex 27.1 -2.8 8.2
      vertex 22.9 -2.8 10.6
      vertex 27.1 -2.8 10.6
    endloop
  endfacet
  facet normal 0 1 0
    outer loop
      vertex 22.9 -2.8 10.6
      vertex 27.1 -2.8 8.2
      vertex 22.9 -2.8 8.2
    endloop
  endfacet
  facet normal 0 1 0
    outer loop
      vertex 27.1 -2.8 10.6
      vertex 40.4 -2.8 12.5
      vertex 35.9 -2.8 10.6
    endloop
  endfacet
  facet normal 0 1 0
    outer loop
      vertex 40.4 -2.8 12.5
      vertex 35.9 -2.8 8.2
      vertex 35.9 -2.8 10.6
    endloop
  endfacet
  facet normal 0 1 0
    outer loop
      vertex 40.4 -2.8 2
      vertex 27.1 -2.8 8.2
      vertex 35.9 -2.8 8.2
    endloop
  endfacet
  facet normal 0 1 0
    outer loop
      vertex 27.1 -2.8 8.2
      vertex 40.4 -2.8 2
      vertex 22.9 -2.8 8.2
    endloop
  endfacet
  facet normal 0 1 0
    outer loop
      vertex 9.59999 -2.8 2
      vertex 22.9 -2.8 8.2
      vertex 40.4 -2.8 2
    endloop
  endfacet
  facet normal 0 1 -0
    outer loop
      vertex 40.4 -2.8 2
      vertex 35.9 -2.8 8.2
      vertex 40.4 -2.8 12.5
    endloop
  endfacet
  facet normal 0 1 0
    outer loop
      vertex 40.4 -2.8 12.5
      vertex 27.1 -2.8 10.6
      vertex 9.59999 -2.8 12.5
    endloop
  endfacet
  facet normal 0 1 -0
    outer loop
      vertex 22.9 -2.8 10.6
      vertex 9.59999 -2.8 12.5
      vertex 27.1 -2.8 10.6
    endloop
  endfacet
  facet normal 0 1 -0
    outer loop
      vertex 14.1 -2.8 10.6
      vertex 9.59999 -2.8 12.5
      vertex 22.9 -2.8 10.6
    endloop
  endfacet
  facet normal 0 1 -0
    outer loop
      vertex 14.1 -2.8 8.2
      vertex 9.59999 -2.8 12.5
      vertex 14.1 -2.8 10.6
    endloop
  endfacet
  facet normal 0 1 0
    outer loop
      vertex 14.1 -2.8 8.2
      vertex 9.59999 -2.8 2
      vertex 9.59999 -2.8 12.5
    endloop
  endfacet
  facet normal 0 1 0
    outer loop
      vertex 22.9 -2.8 8.2
      vertex 9.59999 -2.8 2
      vertex 14.1 -2.8 8.2
    endloop
  endfacet
  facet normal 0 -1 0
    outer loop
      vertex 14.1 43.3 10.6
      vertex 9.59999 43.3 12.5
      vertex 9.7 43.3 10.6
    endloop
  endfacet
  facet normal 0 -1 0
    outer loop
      vertex 9.59999 43.3 12.5
      vertex 9.7 43.3 8.2
      vertex 9.7 43.3 10.6
    endloop
  endfacet
  facet normal 0 -1 -0
    outer loop
      vertex 9.7 43.3 8.2
      vertex 9.59999 43.3 2
      vertex 14.1 43.3 8.2
    endloop
  endfacet
  facet normal 0 -1 0
    outer loop
      vertex 9.59999 43.3 2
      vertex 9.7 43.3 8.2
      vertex 9.59999 43.3 12.5
    endloop
  endfacet
  facet normal 0 -1 0
    outer loop
      vertex 9.59999 43.3 12.5
      vertex 14.1 43.3 10.6
      vertex 14.9 43.3 12.5
    endloop
  endfacet
  facet normal 0 -1 0
    outer loop
      vertex 14.1 43.3 8.2
      vertex 14.9 43.3 12.5
      vertex 14.1 43.3 10.6
    endloop
  endfacet
  facet normal 0 -1 0
    outer loop
      vertex 14.1 43.3 8.2
      vertex 14.9 43.3 2
      vertex 14.9 43.3 12.5
    endloop
  endfacet
  facet normal 0 -1 0
    outer loop
      vertex 14.9 43.3 2
      vertex 14.1 43.3 8.2
      vertex 9.59999 43.3 2
    endloop
  endfacet
  facet normal 0 -1 0
    outer loop
      vertex 35.1 43.3 12.5
      vertex 35.9 43.3 10.6
      vertex 40.4 43.3 12.5
    endloop
  endfacet
  facet normal 0 -1 0
    outer loop
      vertex 35.1 43.3 12.5
      vertex 35.9 43.3 8.2
      vertex 35.9 43.3 10.6
    endloop
  endfacet
  facet normal 0 -1 0
    outer loop
      vertex 40.4 43.3 2
      vertex 35.9 43.3 8.2
      vertex 35.1 43.3 2
    endloop
  endfacet
  facet normal 0 -1 0
    outer loop
      vertex 35.1 43.3 2
      vertex 35.9 43.3 8.2
      vertex 35.1 43.3 12.5
    endloop
  endfacet
  facet normal 0 -1 0
    outer loop
      vertex 40.3 43.3 10.6
      vertex 40.4 43.3 12.5
      vertex 35.9 43.3 10.6
    endloop
  endfacet
  facet normal 0 -1 0
    outer loop
      vertex 40.3 43.3 8.2
      vertex 40.4 43.3 12.5
      vertex 40.3 43.3 10.6
    endloop
  endfacet
  facet normal 0 -1 0
    outer loop
      vertex 40.3 43.3 8.2
      vertex 40.4 43.3 2
      vertex 40.4 43.3 12.5
    endloop
  endfacet
  facet normal 0 -1 0
    outer loop
      vertex 35.9 43.3 8.2
      vertex 40.4 43.3 2
      vertex 40.3 43.3 8.2
    endloop
  endfacet
  facet normal 1 -0 0
    outer loop
      vertex 9.2 31 12.5
      vertex 9.2 42.9 2
      vertex 9.2 42.9 12.5
    endloop
  endfacet
  facet normal 1 0 0
    outer loop
      vertex 9.2 42.9 2
      vertex 9.2 31 12.5
      vertex 9.2 31 2
    endloop
  endfacet
  facet normal 1 -0 0
    outer loop
      vertex 9.2 -2.40001 12.5
      vertex 9.2 -0.5 2
      vertex 9.2 -0.5 12.5
    endloop
  endfacet
  facet normal 1 0 0
    outer loop
      vertex 9.2 -0.5 2
      vertex 9.2 -2.40001 12.5
      vertex 9.2 -2.40001 2
    endloop
  endfacet
  facet normal 0.290248 0.956951 -0
    outer loop
      vertex 9.52196 -2.79232 2
      vertex 9.44692 -2.76956 12.5
      vertex 9.52196 -2.79232 12.5
    endloop
  endfacet
  facet normal 0.290248 0.956951 0
    outer loop
      vertex 9.44692 -2.76956 12.5
      vertex 9.52196 -2.79232 2
      vertex 9.44692 -2.76956 2
    endloop
  endfacet
  facet normal -1 0 0
    outer loop
      vertex 40.8 31 2
      vertex 40.8 42.9 12.5
      vertex 40.8 42.9 2
    endloop
  endfacet
  facet normal -1 -0 0
    outer loop
      vertex 40.8 42.9 12.5
      vertex 40.8 31 2
      vertex 40.8 31 12.5
    endloop
  endfacet
  facet normal -1 0 0
    outer loop
      vertex 40.8 -2.40001 2
      vertex 40.8 -0.5 12.5
      vertex 40.8 -0.5 2
    endloop
  endfacet
  facet normal -1 -0 0
    outer loop
      vertex 40.8 -0.5 12.5
      vertex 40.8 -2.40001 2
      vertex 40.8 -2.40001 12.5
    endloop
  endfacet
  facet normal -0.881575 -0.472044 0
    outer loop
      vertex 40.7696 43.0531 2
      vertex 40.7326 43.1222 12.5
      vertex 40.7326 43.1222 2
    endloop
  endfacet
  facet normal -0.881575 -0.472044 0
    outer loop
      vertex 40.7326 43.1222 12.5
      vertex 40.7696 43.0531 2
      vertex 40.7696 43.0531 12.5
    endloop
  endfacet
  facet normal -0.472044 -0.881575 0
    outer loop
      vertex 40.5531 43.2696 2
      vertex 40.6222 43.2326 12.5
      vertex 40.5531 43.2696 12.5
    endloop
  endfacet
  facet normal -0.472044 -0.881575 -0
    outer loop
      vertex 40.6222 43.2326 12.5
      vertex 40.5531 43.2696 2
      vertex 40.6222 43.2326 2
    endloop
  endfacet
  facet normal 0.9952 -0.0978613 0
    outer loop
      vertex 9.2 42.9 12.5
      vertex 9.20767 42.978 2
      vertex 9.20767 42.978 12.5
    endloop
  endfacet
  facet normal 0.9952 -0.0978613 0
    outer loop
      vertex 9.20767 42.978 2
      vertex 9.2 42.9 12.5
      vertex 9.2 42.9 2
    endloop
  endfacet
  facet normal 0.95698 -0.290152 0
    outer loop
      vertex 9.20767 42.978 12.5
      vertex 9.23044 43.0531 2
      vertex 9.23044 43.0531 12.5
    endloop
  endfacet
  facet normal 0.95698 -0.290152 0
    outer loop
      vertex 9.23044 43.0531 2
      vertex 9.20767 42.978 12.5
      vertex 9.20767 42.978 2
    endloop
  endfacet
  facet normal 0.995204 0.0978241 0
    outer loop
      vertex 9.20767 -2.47804 12.5
      vertex 9.2 -2.40001 2
      vertex 9.2 -2.40001 12.5
    endloop
  endfacet
  facet normal 0.995204 0.0978241 0
    outer loop
      vertex 9.2 -2.40001 2
      vertex 9.20767 -2.47804 12.5
      vertex 9.20767 -2.47804 2
    endloop
  endfacet
  facet normal 0.881876 0.471482 0
    outer loop
      vertex 9.26741 -2.62223 12.5
      vertex 9.23044 -2.55308 2
      vertex 9.23044 -2.55308 12.5
    endloop
  endfacet
  facet normal 0.881876 0.471482 0
    outer loop
      vertex 9.23044 -2.55308 2
      vertex 9.26741 -2.62223 12.5
      vertex 9.26741 -2.62223 2
    endloop
  endfacet
  facet normal 0.0979504 0.995191 -0
    outer loop
      vertex 9.59999 -2.8 2
      vertex 9.52196 -2.79232 12.5
      vertex 9.59999 -2.8 12.5
    endloop
  endfacet
  facet normal 0.0979504 0.995191 0
    outer loop
      vertex 9.52196 -2.79232 12.5
      vertex 9.59999 -2.8 2
      vertex 9.52196 -2.79232 2
    endloop
  endfacet
  facet normal 0.471429 0.881904 -0
    outer loop
      vertex 9.44692 -2.76956 2
      vertex 9.37776 -2.73259 12.5
      vertex 9.44692 -2.76956 12.5
    endloop
  endfacet
  facet normal 0.471429 0.881904 0
    outer loop
      vertex 9.37776 -2.73259 12.5
      vertex 9.44692 -2.76956 2
      vertex 9.37776 -2.73259 2
    endloop
  endfacet
  facet normal 0.772956 0.634459 0
    outer loop
      vertex 9.31716 -2.68284 12.5
      vertex 9.26741 -2.62223 2
      vertex 9.26741 -2.62223 12.5
    endloop
  endfacet
  facet normal 0.772956 0.634459 0
    outer loop
      vertex 9.26741 -2.62223 2
      vertex 9.31716 -2.68284 12.5
      vertex 9.31716 -2.68284 2
    endloop
  endfacet
  facet normal -0.471747 0.881734 0
    outer loop
      vertex 40.6222 -2.73259 2
      vertex 40.5531 -2.76956 12.5
      vertex 40.6222 -2.73259 12.5
    endloop
  endfacet
  facet normal -0.471747 0.881734 0
    outer loop
      vertex 40.5531 -2.76956 12.5
      vertex 40.6222 -2.73259 2
      vertex 40.5531 -2.76956 2
    endloop
  endfacet
  facet normal -0.289335 -0.957228 0
    outer loop
      vertex 40.478 43.2923 2
      vertex 40.5531 43.2696 12.5
      vertex 40.478 43.2923 12.5
    endloop
  endfacet
  facet normal -0.289335 -0.957228 -0
    outer loop
      vertex 40.5531 43.2696 12.5
      vertex 40.478 43.2923 2
      vertex 40.5531 43.2696 2
    endloop
  endfacet
  facet normal 0.881734 -0.471747 0
    outer loop
      vertex 9.23044 43.0531 12.5
      vertex 9.26741 43.1222 2
      vertex 9.26741 43.1222 12.5
    endloop
  endfacet
  facet normal 0.881734 -0.471747 0
    outer loop
      vertex 9.26741 43.1222 2
      vertex 9.23044 43.0531 12.5
      vertex 9.23044 43.0531 2
    endloop
  endfacet
  facet normal 0.956916 0.290365 0
    outer loop
      vertex 9.23044 -2.55308 12.5
      vertex 9.20767 -2.47804 2
      vertex 9.20767 -2.47804 12.5
    endloop
  endfacet
  facet normal 0.956916 0.290365 0
    outer loop
      vertex 9.20767 -2.47804 2
      vertex 9.23044 -2.55308 12.5
      vertex 9.23044 -2.55308 2
    endloop
  endfacet
  facet normal 0.634522 0.772905 -0
    outer loop
      vertex 9.37776 -2.73259 2
      vertex 9.31716 -2.68284 12.5
      vertex 9.37776 -2.73259 12.5
    endloop
  endfacet
  facet normal 0.634522 0.772905 0
    outer loop
      vertex 9.31716 -2.68284 12.5
      vertex 9.37776 -2.73259 2
      vertex 9.31716 -2.68284 2
    endloop
  endfacet
  facet normal -0.995163 -0.0982404 0
    outer loop
      vertex 40.8 42.9 2
      vertex 40.7923 42.978 12.5
      vertex 40.7923 42.978 2
    endloop
  endfacet
  facet normal -0.995163 -0.0982404 0
    outer loop
      vertex 40.7923 42.978 12.5
      vertex 40.8 42.9 2
      vertex 40.8 42.9 12.5
    endloop
  endfacet
  facet normal -0.995166 0.098203 0
    outer loop
      vertex 40.7923 -2.47804 2
      vertex 40.8 -2.40001 12.5
      vertex 40.8 -2.40001 2
    endloop
  endfacet
  facet normal -0.995166 0.098203 0
    outer loop
      vertex 40.8 -2.40001 12.5
      vertex 40.7923 -2.47804 2
      vertex 40.7923 -2.47804 12.5
    endloop
  endfacet
  facet normal -0.881717 0.471779 0
    outer loop
      vertex 40.7326 -2.62223 2
      vertex 40.7696 -2.55308 12.5
      vertex 40.7696 -2.55308 2
    endloop
  endfacet
  facet normal -0.881717 0.471779 0
    outer loop
      vertex 40.7696 -2.55308 12.5
      vertex 40.7326 -2.62223 2
      vertex 40.7326 -2.62223 12.5
    endloop
  endfacet
  facet normal -0.634522 0.772905 0
    outer loop
      vertex 40.6828 -2.68284 2
      vertex 40.6222 -2.73259 12.5
      vertex 40.6828 -2.68284 12.5
    endloop
  endfacet
  facet normal -0.634522 0.772905 0
    outer loop
      vertex 40.6222 -2.73259 12.5
      vertex 40.6828 -2.68284 2
      vertex 40.6222 -2.73259 2
    endloop
  endfacet
  facet normal -0.772644 0.63484 0
    outer loop
      vertex 40.6828 -2.68284 2
      vertex 40.7326 -2.62223 12.5
      vertex 40.7326 -2.62223 2
    endloop
  endfacet
  facet normal -0.772644 0.63484 0
    outer loop
      vertex 40.7326 -2.62223 12.5
      vertex 40.6828 -2.68284 2
      vertex 40.6828 -2.68284 12.5
    endloop
  endfacet
  facet normal -0.634903 -0.772592 0
    outer loop
      vertex 40.6222 43.2326 2
      vertex 40.6828 43.1828 12.5
      vertex 40.6222 43.2326 12.5
    endloop
  endfacet
  facet normal -0.634903 -0.772592 -0
    outer loop
      vertex 40.6828 43.1828 12.5
      vertex 40.6222 43.2326 2
      vertex 40.6828 43.1828 2
    endloop
  endfacet
  facet normal -0.772592 -0.634903 0
    outer loop
      vertex 40.7326 43.1222 2
      vertex 40.6828 43.1828 12.5
      vertex 40.6828 43.1828 2
    endloop
  endfacet
  facet normal -0.772592 -0.634903 0
    outer loop
      vertex 40.6828 43.1828 12.5
      vertex 40.7326 43.1222 2
      vertex 40.7326 43.1222 12.5
    endloop
  endfacet
  facet normal 0.471726 -0.881745 0
    outer loop
      vertex 9.37776 43.2326 2
      vertex 9.44692 43.2696 12.5
      vertex 9.37776 43.2326 12.5
    endloop
  endfacet
  facet normal 0.471726 -0.881745 0
    outer loop
      vertex 9.44692 43.2696 12.5
      vertex 9.37776 43.2326 2
      vertex 9.44692 43.2696 2
    endloop
  endfacet
  facet normal 0.289547 -0.957164 0
    outer loop
      vertex 9.44692 43.2696 2
      vertex 9.52196 43.2923 12.5
      vertex 9.44692 43.2696 12.5
    endloop
  endfacet
  facet normal 0.289547 -0.957164 0
    outer loop
      vertex 9.52196 43.2923 12.5
      vertex 9.44692 43.2696 2
      vertex 9.52196 43.2923 2
    endloop
  endfacet
  facet normal -0.957228 -0.289335 0
    outer loop
      vertex 40.7923 42.978 2
      vertex 40.7696 43.0531 12.5
      vertex 40.7696 43.0531 2
    endloop
  endfacet
  facet normal -0.957228 -0.289335 0
    outer loop
      vertex 40.7696 43.0531 12.5
      vertex 40.7923 42.978 2
      vertex 40.7923 42.978 12.5
    endloop
  endfacet
  facet normal -0.957164 0.289547 0
    outer loop
      vertex 40.7696 -2.55308 2
      vertex 40.7923 -2.47804 12.5
      vertex 40.7923 -2.47804 2
    endloop
  endfacet
  facet normal -0.957164 0.289547 0
    outer loop
      vertex 40.7923 -2.47804 12.5
      vertex 40.7696 -2.55308 2
      vertex 40.7696 -2.55308 12.5
    endloop
  endfacet
  facet normal 0.772905 -0.634522 0
    outer loop
      vertex 9.26741 43.1222 12.5
      vertex 9.31716 43.1828 2
      vertex 9.31716 43.1828 12.5
    endloop
  endfacet
  facet normal 0.772905 -0.634522 0
    outer loop
      vertex 9.31716 43.1828 2
      vertex 9.26741 43.1222 12.5
      vertex 9.26741 43.1222 2
    endloop
  endfacet
  facet normal 0.634903 -0.772592 0
    outer loop
      vertex 9.31716 43.1828 2
      vertex 9.37776 43.2326 12.5
      vertex 9.31716 43.1828 12.5
    endloop
  endfacet
  facet normal 0.634903 -0.772592 0
    outer loop
      vertex 9.37776 43.2326 12.5
      vertex 9.31716 43.1828 2
      vertex 9.37776 43.2326 2
    endloop
  endfacet
  facet normal -0 0 1
    outer loop
      vertex 9.2 42.9 2
      vertex 14.9 35 2
      vertex 14.9 43.3 2
    endloop
  endfacet
  facet normal 0 0 1
    outer loop
      vertex 9.2 42.9 2
      vertex 14.9 43.3 2
      vertex 9.59999 43.3 2
    endloop
  endfacet
  facet normal 0 0 1
    outer loop
      vertex 9.2 42.9 2
      vertex 9.59999 43.3 2
      vertex 9.52196 43.2923 2
    endloop
  endfacet
  facet normal 0 0 1
    outer loop
      vertex 9.2 42.9 2
      vertex 9.52196 43.2923 2
      vertex 9.44692 43.2696 2
    endloop
  endfacet
  facet normal 0 0 1
    outer loop
      vertex 9.2 42.9 2
      vertex 9.44692 43.2696 2
      vertex 9.37776 43.2326 2
    endloop
  endfacet
  facet normal 0 0 1
    outer loop
      vertex 9.2 42.9 2
      vertex 9.37776 43.2326 2
      vertex 9.31716 43.1828 2
    endloop
  endfacet
  facet normal 0 0 1
    outer loop
      vertex 9.2 42.9 2
      vertex 9.31716 43.1828 2
      vertex 9.26741 43.1222 2
    endloop
  endfacet
  facet normal 0 0 1
    outer loop
      vertex 9.2 42.9 2
      vertex 9.26741 43.1222 2
      vertex 9.23044 43.0531 2
    endloop
  endfacet
  facet normal 0 0 1
    outer loop
      vertex 9.2 42.9 2
      vertex 9.23044 43.0531 2
      vertex 9.20767 42.978 2
    endloop
  endfacet
  facet normal 0 0 1
    outer loop
      vertex 9.2 31 2
      vertex 14.9 35 2
      vertex 9.2 42.9 2
    endloop
  endfacet
  facet normal 0 0 1
    outer loop
      vertex 14.9 35 2
      vertex 9.2 31 2
      vertex 12.7 31 2
    endloop
  endfacet
  facet normal 0 0 1
    outer loop
      vertex 40.4 43.3 2
      vertex 40.8 42.9 2
      vertex 40.7923 42.978 2
    endloop
  endfacet
  facet normal 0 0 1
    outer loop
      vertex 40.4 43.3 2
      vertex 40.7923 42.978 2
      vertex 40.7696 43.0531 2
    endloop
  endfacet
  facet normal 0 0 1
    outer loop
      vertex 40.4 43.3 2
      vertex 40.7696 43.0531 2
      vertex 40.7326 43.1222 2
    endloop
  endfacet
  facet normal 0 0 1
    outer loop
      vertex 40.4 43.3 2
      vertex 40.7326 43.1222 2
      vertex 40.6828 43.1828 2
    endloop
  endfacet
  facet normal 0 0 1
    outer loop
      vertex 40.4 43.3 2
      vertex 40.6828 43.1828 2
      vertex 40.6222 43.2326 2
    endloop
  endfacet
  facet normal 0 0 1
    outer loop
      vertex 40.4 43.3 2
      vertex 40.6222 43.2326 2
      vertex 40.5531 43.2696 2
    endloop
  endfacet
  facet normal 0 0 1
    outer loop
      vertex 40.4 43.3 2
      vertex 40.5531 43.2696 2
      vertex 40.478 43.2923 2
    endloop
  endfacet
  facet normal 0 0 1
    outer loop
      vertex 40.8 42.9 2
      vertex 40.4 43.3 2
      vertex 35.1 43.3 2
    endloop
  endfacet
  facet normal 0 0 1
    outer loop
      vertex 40.8 42.9 2
      vertex 35.1 35 2
      vertex 40.8 31 2
    endloop
  endfacet
  facet normal 0 0 1
    outer loop
      vertex 40.8 42.9 2
      vertex 35.1 43.3 2
      vertex 35.1 35 2
    endloop
  endfacet
  facet normal -0 0 1
    outer loop
      vertex 35.0769 34.7659 2
      vertex 40.8 31 2
      vertex 35.1 35 2
    endloop
  endfacet
  facet normal 0 0 1
    outer loop
      vertex 40.8 31 2
      vertex 35.0769 34.7659 2
      vertex 36.3 31 2
    endloop
  endfacet
  facet normal -0 0 1
    outer loop
      vertex 35.0087 34.5408 2
      vertex 36.3 31 2
      vertex 35.0769 34.7659 2
    endloop
  endfacet
  facet normal -0 0 1
    outer loop
      vertex 34.8978 34.3333 2
      vertex 36.3 31 2
      vertex 35.0087 34.5408 2
    endloop
  endfacet
  facet normal -0 0 1
    outer loop
      vertex 34.7485 34.1515 2
      vertex 36.3 31 2
      vertex 34.8978 34.3333 2
    endloop
  endfacet
  facet normal -0 0 1
    outer loop
      vertex 34.5667 34.0022 2
      vertex 36.3 31 2
      vertex 34.7485 34.1515 2
    endloop
  endfacet
  facet normal -0 0 1
    outer loop
      vertex 34.3592 33.8913 2
      vertex 36.3 31 2
      vertex 34.5667 34.0022 2
    endloop
  endfacet
  facet normal -0 0 1
    outer loop
      vertex 34.1341 33.8231 2
      vertex 36.3 31 2
      vertex 34.3592 33.8913 2
    endloop
  endfacet
  facet normal -0 0 1
    outer loop
      vertex 33.9 33.8 2
      vertex 36.3 31 2
      vertex 34.1341 33.8231 2
    endloop
  endfacet
  facet normal 0 0 1
    outer loop
      vertex 20.6 19.8 2
      vertex 36.3 31 2
      vertex 33.9 33.8 2
    endloop
  endfacet
  facet normal 0 0 1
    outer loop
      vertex 36.3 31 2
      vertex 20.6 19.8 2
      vertex 36.3 19.8 2
    endloop
  endfacet
  facet normal -0 0 1
    outer loop
      vertex 12.7 31 2
      vertex 20.6 19.8 2
      vertex 16.1 33.8 2
    endloop
  endfacet
  facet normal -0 0 1
    outer loop
      vertex 16.1 33.8 2
      vertex 20.6 19.8 2
      vertex 33.9 33.8 2
    endloop
  endfacet
  facet normal 0 0 1
    outer loop
      vertex 36.3 0.2 2
      vertex 20.6 0.2 2
      vertex 36.3 -0.5 2
    endloop
  endfacet
  facet normal 0 0 1
    outer loop
      vertex 40.4 -2.8 2
      vertex 40.8 -2.40001 2
      vertex 40.8 -0.5 2
    endloop
  endfacet
  facet normal 0 0 1
    outer loop
      vertex 40.8 -2.40001 2
      vertex 40.4 -2.8 2
      vertex 40.7923 -2.47804 2
    endloop
  endfacet
  facet normal 0 0 1
    outer loop
      vertex 40.7923 -2.47804 2
      vertex 40.4 -2.8 2
      vertex 40.7696 -2.55308 2
    endloop
  endfacet
  facet normal 0 0 1
    outer loop
      vertex 40.7696 -2.55308 2
      vertex 40.4 -2.8 2
      vertex 40.7326 -2.62223 2
    endloop
  endfacet
  facet normal 0 0 1
    outer loop
      vertex 40.7326 -2.62223 2
      vertex 40.4 -2.8 2
      vertex 40.6828 -2.68284 2
    endloop
  endfacet
  facet normal 0 0 1
    outer loop
      vertex 40.6828 -2.68284 2
      vertex 40.4 -2.8 2
      vertex 40.6222 -2.73259 2
    endloop
  endfacet
  facet normal 0 0 1
    outer loop
      vertex 40.6222 -2.73259 2
      vertex 40.4 -2.8 2
      vertex 40.5531 -2.76956 2
    endloop
  endfacet
  facet normal 0 0 1
    outer loop
      vertex 40.5531 -2.76956 2
      vertex 40.4 -2.8 2
      vertex 40.478 -2.79232 2
    endloop
  endfacet
  facet normal -0 0 1
    outer loop
      vertex 36.3 -0.5 2
      vertex 40.4 -2.8 2
      vertex 40.8 -0.5 2
    endloop
  endfacet
  facet normal 0 0 1
    outer loop
      vertex 20.6 0.2 2
      vertex 40.4 -2.8 2
      vertex 36.3 -0.5 2
    endloop
  endfacet
  facet normal 0 0 1
    outer loop
      vertex 12.7 31 2
      vertex 16.1 33.8 2
      vertex 15.8659 33.8231 2
    endloop
  endfacet
  facet normal 0 0 1
    outer loop
      vertex 12.7 31 2
      vertex 15.8659 33.8231 2
      vertex 15.6408 33.8913 2
    endloop
  endfacet
  facet normal 0 0 1
    outer loop
      vertex 12.7 31 2
      vertex 15.6408 33.8913 2
      vertex 15.4333 34.0022 2
    endloop
  endfacet
  facet normal 0 0 1
    outer loop
      vertex 12.7 31 2
      vertex 15.4333 34.0022 2
      vertex 15.2515 34.1515 2
    endloop
  endfacet
  facet normal 0 0 1
    outer loop
      vertex 12.7 31 2
      vertex 15.2515 34.1515 2
      vertex 15.1022 34.3333 2
    endloop
  endfacet
  facet normal 0 0 1
    outer loop
      vertex 12.7 31 2
      vertex 15.1022 34.3333 2
      vertex 14.9913 34.5408 2
    endloop
  endfacet
  facet normal 0 0 1
    outer loop
      vertex 12.7 31 2
      vertex 14.9913 34.5408 2
      vertex 14.9231 34.7659 2
    endloop
  endfacet
  facet normal 0 0 1
    outer loop
      vertex 12.7 31 2
      vertex 14.9231 34.7659 2
      vertex 14.9 35 2
    endloop
  endfacet
  facet normal 0 0 1
    outer loop
      vertex 12.7 -0.5 2
      vertex 20.6 19.8 2
      vertex 12.7 31 2
    endloop
  endfacet
  facet normal 0 0 1
    outer loop
      vertex 20.6 19.8 2
      vertex 12.7 -0.5 2
      vertex 20.6 0.2 2
    endloop
  endfacet
  facet normal 0 0 1
    outer loop
      vertex 9.59999 -2.8 2
      vertex 20.6 0.2 2
      vertex 12.7 -0.5 2
    endloop
  endfacet
  facet normal 0 0 1
    outer loop
      vertex 20.6 0.2 2
      vertex 9.59999 -2.8 2
      vertex 40.4 -2.8 2
    endloop
  endfacet
  facet normal -0 0 1
    outer loop
      vertex 9.2 -0.5 2
      vertex 9.59999 -2.8 2
      vertex 12.7 -0.5 2
    endloop
  endfacet
  facet normal -0 0 1
    outer loop
      vertex 9.2 -2.40001 2
      vertex 9.59999 -2.8 2
      vertex 9.2 -0.5 2
    endloop
  endfacet
  facet normal 0 0 1
    outer loop
      vertex 9.52196 -2.79232 2
      vertex 9.2 -2.40001 2
      vertex 9.44692 -2.76956 2
    endloop
  endfacet
  facet normal 0 0 1
    outer loop
      vertex 9.44692 -2.76956 2
      vertex 9.2 -2.40001 2
      vertex 9.37776 -2.73259 2
    endloop
  endfacet
  facet normal 0 0 1
    outer loop
      vertex 9.37776 -2.73259 2
      vertex 9.2 -2.40001 2
      vertex 9.31716 -2.68284 2
    endloop
  endfacet
  facet normal 0 0 1
    outer loop
      vertex 9.31716 -2.68284 2
      vertex 9.2 -2.40001 2
      vertex 9.26741 -2.62223 2
    endloop
  endfacet
  facet normal 0 0 1
    outer loop
      vertex 9.26741 -2.62223 2
      vertex 9.2 -2.40001 2
      vertex 9.23044 -2.55308 2
    endloop
  endfacet
  facet normal 0 0 1
    outer loop
      vertex 9.59999 -2.8 2
      vertex 9.2 -2.40001 2
      vertex 9.52196 -2.79232 2
    endloop
  endfacet
  facet normal 0 0 1
    outer loop
      vertex 9.23044 -2.55308 2
      vertex 9.2 -2.40001 2
      vertex 9.20767 -2.47804 2
    endloop
  endfacet
  facet normal 0 1 0
    outer loop
      vertex 12.7 -0.5 2
      vertex 12.7 -0.5 0
      vertex 9.2 -0.5 2
    endloop
  endfacet
  facet normal 0 1 -0
    outer loop
      vertex 9.2 -0.5 2
      vertex 7.2 -0.5 12.5
      vertex 9.2 -0.5 12.5
    endloop
  endfacet
  facet normal 0 1 0
    outer loop
      vertex 9.2 -0.5 2
      vertex 7.2 -0.5 0
      vertex 7.2 -0.5 12.5
    endloop
  endfacet
  facet normal 0 1 0
    outer loop
      vertex 7.2 -0.5 0
      vertex 9.2 -0.5 2
      vertex 12.7 -0.5 0
    endloop
  endfacet
  facet normal 0 -1 0
    outer loop
      vertex 7.2 31 12.5
      vertex 9.2 31 2
      vertex 9.2 31 12.5
    endloop
  endfacet
  facet normal 0 -1 0
    outer loop
      vertex 7.2 31 0
      vertex 9.2 31 2
      vertex 7.2 31 12.5
    endloop
  endfacet
  facet normal 0 -1 0
    outer loop
      vertex 12.7 31 0
      vertex 9.2 31 2
      vertex 7.2 31 0
    endloop
  endfacet
  facet normal 0 -1 0
    outer loop
      vertex 9.2 31 2
      vertex 12.7 31 0
      vertex 12.7 31 2
    endloop
  endfacet
  facet normal 0 -1 0
    outer loop
      vertex 36.3 31 2
      vertex 36.3 31 0
      vertex 40.8 31 2
    endloop
  endfacet
  facet normal 0 -1 0
    outer loop
      vertex 40.8 31 2
      vertex 42.8 31 12.5
      vertex 40.8 31 12.5
    endloop
  endfacet
  facet normal 0 -1 0
    outer loop
      vertex 40.8 31 2
      vertex 42.8 31 0
      vertex 42.8 31 12.5
    endloop
  endfacet
  facet normal 0 -1 0
    outer loop
      vertex 42.8 31 0
      vertex 40.8 31 2
      vertex 36.3 31 0
    endloop
  endfacet
  facet normal 0 1 0
    outer loop
      vertex 42.8 -0.5 12.5
      vertex 40.8 -0.5 2
      vertex 40.8 -0.5 12.5
    endloop
  endfacet
  facet normal 0 1 -0
    outer loop
      vertex 42.8 -0.5 0
      vertex 40.8 -0.5 2
      vertex 42.8 -0.5 12.5
    endloop
  endfacet
  facet normal 0 1 0
    outer loop
      vertex 36.3 -0.5 0
      vertex 40.8 -0.5 2
      vertex 42.8 -0.5 0
    endloop
  endfacet
  facet normal 0 1 0
    outer loop
      vertex 40.8 -0.5 2
      vertex 36.3 -0.5 0
      vertex 36.3 -0.5 2
    endloop
  endfacet
  facet normal 1 -0 0
    outer loop
      vertex 20.6 0.2 2
      vertex 20.6 19.8 0
      vertex 20.6 19.8 2
    endloop
  endfacet
  facet normal 1 0 0
    outer loop
      vertex 20.6 19.8 0
      vertex 20.6 0.2 2
      vertex 20.6 0.2 0
    endloop
  endfacet
  facet normal 0 -1 0
    outer loop
      vertex 20.6 19.8 0
      vertex 36.3 19.8 2
      vertex 20.6 19.8 2
    endloop
  endfacet
  facet normal 0 -1 -0
    outer loop
      vertex 36.3 19.8 2
      vertex 20.6 19.8 0
      vertex 36.3 19.8 0
    endloop
  endfacet
  facet normal 0 1 -0
    outer loop
      vertex 36.3 0.2 0
      vertex 20.6 0.2 2
      vertex 36.3 0.2 2
    endloop
  endfacet
  facet normal 0 1 0
    outer loop
      vertex 20.6 0.2 2
      vertex 36.3 0.2 0
      vertex 20.6 0.2 0
    endloop
  endfacet
  facet normal -1 0 0
    outer loop
      vertex 12.7 -0.5 0
      vertex 12.7 31 2
      vertex 12.7 31 0
    endloop
  endfacet
  facet normal -1 -0 0
    outer loop
      vertex 12.7 31 2
      vertex 12.7 -0.5 0
      vertex 12.7 -0.5 2
    endloop
  endfacet
  facet normal 1 -0 0
    outer loop
      vertex 36.3 19.8 2
      vertex 36.3 31 0
      vertex 36.3 31 2
    endloop
  endfacet
  facet normal 1 0 0
    outer loop
      vertex 36.3 31 0
      vertex 36.3 19.8 2
      vertex 36.3 19.8 0
    endloop
  endfacet
  facet normal 1 -0 0
    outer loop
      vertex 36.3 -0.5 2
      vertex 36.3 0.2 0
      vertex 36.3 0.2 2
    endloop
  endfacet
  facet normal 1 0 0
    outer loop
      vertex 36.3 0.2 0
      vertex 36.3 -0.5 2
      vertex 36.3 -0.5 0
    endloop
  endfacet
  facet normal 1 -0 0
    outer loop
      vertex 14.1 -4.8 10.6
      vertex 14.1 -2.8 8.2
      vertex 14.1 -2.8 10.6
    endloop
  endfacet
  facet normal 1 0 0
    outer loop
      vertex 14.1 -2.8 8.2
      vertex 14.1 -4.8 10.6
      vertex 14.1 -4.8 8.2
    endloop
  endfacet
  facet normal 0 0 -1
    outer loop
      vertex 14.1 -4.8 10.6
      vertex 22.9 -2.8 10.6
      vertex 22.9 -4.8 10.6
    endloop
  endfacet
  facet normal -0 0 -1
    outer loop
      vertex 22.9 -2.8 10.6
      vertex 14.1 -4.8 10.6
      vertex 14.1 -2.8 10.6
    endloop
  endfacet
  facet normal -1 0 0
    outer loop
      vertex 22.9 -4.8 8.2
      vertex 22.9 -2.8 10.6
      vertex 22.9 -2.8 8.2
    endloop
  endfacet
  facet normal -1 -0 0
    outer loop
      vertex 22.9 -2.8 10.6
      vertex 22.9 -4.8 8.2
      vertex 22.9 -4.8 10.6
    endloop
  endfacet
  facet normal -0 0 1
    outer loop
      vertex 14.1 -2.8 8.2
      vertex 22.9 -4.8 8.2
      vertex 22.9 -2.8 8.2
    endloop
  endfacet
  facet normal 0 0 1
    outer loop
      vertex 22.9 -4.8 8.2
      vertex 14.1 -2.8 8.2
      vertex 14.1 -4.8 8.2
    endloop
  endfacet
  facet normal 1 -0 0
    outer loop
      vertex 27.1 -4.8 10.6
      vertex 27.1 -2.8 8.2
      vertex 27.1 -2.8 10.6
    endloop
  endfacet
  facet normal 1 0 0
    outer loop
      vertex 27.1 -2.8 8.2
      vertex 27.1 -4.8 10.6
      vertex 27.1 -4.8 8.2
    endloop
  endfacet
  facet normal 0 0 -1
    outer loop
      vertex 27.1 -4.8 10.6
      vertex 35.9 -2.8 10.6
      vertex 35.9 -4.8 10.6
    endloop
  endfacet
  facet normal -0 0 -1
    outer loop
      vertex 35.9 -2.8 10.6
      vertex 27.1 -4.8 10.6
      vertex 27.1 -2.8 10.6
    endloop
  endfacet
  facet normal -1 0 0
    outer loop
      vertex 35.9 -4.8 8.2
      vertex 35.9 -2.8 10.6
      vertex 35.9 -2.8 8.2
    endloop
  endfacet
  facet normal -1 -0 0
    outer loop
      vertex 35.9 -2.8 10.6
      vertex 35.9 -4.8 8.2
      vertex 35.9 -4.8 10.6
    endloop
  endfacet
  facet normal -0 0 1
    outer loop
      vertex 27.1 -2.8 8.2
      vertex 35.9 -4.8 8.2
      vertex 35.9 -2.8 8.2
    endloop
  endfacet
  facet normal 0 0 1
    outer loop
      vertex 35.9 -4.8 8.2
      vertex 27.1 -2.8 8.2
      vertex 27.1 -4.8 8.2
    endloop
  endfacet
  facet normal 1 -0 0
    outer loop
      vertex 9.7 43.3 10.6
      vertex 9.7 45.3 8.2
      vertex 9.7 45.3 10.6
    endloop
  endfacet
  facet normal 1 0 0
    outer loop
      vertex 9.7 45.3 8.2
      vertex 9.7 43.3 10.6
      vertex 9.7 43.3 8.2
    endloop
  endfacet
  facet normal 0 0 -1
    outer loop
      vertex 9.7 43.3 10.6
      vertex 14.1 45.3 10.6
      vertex 14.1 43.3 10.6
    endloop
  endfacet
  facet normal -0 0 -1
    outer loop
      vertex 14.1 45.3 10.6
      vertex 9.7 43.3 10.6
      vertex 9.7 45.3 10.6
    endloop
  endfacet
  facet normal -1 0 0
    outer loop
      vertex 14.1 43.3 8.2
      vertex 14.1 45.3 10.6
      vertex 14.1 45.3 8.2
    endloop
  endfacet
  facet normal -1 -0 0
    outer loop
      vertex 14.1 45.3 10.6
      vertex 14.1 43.3 8.2
      vertex 14.1 43.3 10.6
    endloop
  endfacet
  facet normal -0 0 1
    outer loop
      vertex 9.7 45.3 8.2
      vertex 14.1 43.3 8.2
      vertex 14.1 45.3 8.2
    endloop
  endfacet
  facet normal 0 0 1
    outer loop
      vertex 14.1 43.3 8.2
      vertex 9.7 45.3 8.2
      vertex 9.7 43.3 8.2
    endloop
  endfacet
  facet normal 1 -0 0
    outer loop
      vertex 35.9 43.3 10.6
      vertex 35.9 45.3 8.2
      vertex 35.9 45.3 10.6
    endloop
  endfacet
  facet normal 1 0 0
    outer loop
      vertex 35.9 45.3 8.2
      vertex 35.9 43.3 10.6
      vertex 35.9 43.3 8.2
    endloop
  endfacet
  facet normal 0 0 -1
    outer loop
      vertex 35.9 43.3 10.6
      vertex 40.3 45.3 10.6
      vertex 40.3 43.3 10.6
    endloop
  endfacet
  facet normal -0 0 -1
    outer loop
      vertex 40.3 45.3 10.6
      vertex 35.9 43.3 10.6
      vertex 35.9 45.3 10.6
    endloop
  endfacet
  facet normal -1 0 0
    outer loop
      vertex 40.3 43.3 8.2
      vertex 40.3 45.3 10.6
      vertex 40.3 45.3 8.2
    endloop
  endfacet
  facet normal -1 -0 0
    outer loop
      vertex 40.3 45.3 10.6
      vertex 40.3 43.3 8.2
      vertex 40.3 43.3 10.6
    endloop
  endfacet
  facet normal -0 0 1
    outer loop
      vertex 35.9 45.3 8.2
      vertex 40.3 43.3 8.2
      vertex 40.3 45.3 8.2
    endloop
  endfacet
  facet normal 0 0 1
    outer loop
      vertex 40.3 43.3 8.2
      vertex 35.9 45.3 8.2
      vertex 35.9 43.3 8.2
    endloop
  endfacet
  facet normal 0 1 -0
    outer loop
      vertex 33.9 33.8 0
      vertex 16.1 33.8 2
      vertex 33.9 33.8 2
    endloop
  endfacet
  facet normal 0 1 0
    outer loop
      vertex 16.1 33.8 2
      vertex 33.9 33.8 0
      vertex 16.1 33.8 0
    endloop
  endfacet
  facet normal -0.0981989 0.995167 0
    outer loop
      vertex 34.1341 33.8231 0
      vertex 33.9 33.8 2
      vertex 34.1341 33.8231 2
    endloop
  endfacet
  facet normal -0.0981989 0.995167 0
    outer loop
      vertex 33.9 33.8 2
      vertex 34.1341 33.8231 0
      vertex 33.9 33.8 0
    endloop
  endfacet
  facet normal -0.28996 0.957039 0
    outer loop
      vertex 34.3592 33.8913 0
      vertex 34.1341 33.8231 2
      vertex 34.3592 33.8913 2
    endloop
  endfacet
  facet normal -0.28996 0.957039 0
    outer loop
      vertex 34.1341 33.8231 2
      vertex 34.3592 33.8913 0
      vertex 34.1341 33.8231 0
    endloop
  endfacet
  facet normal 0.47136 0.881941 -0
    outer loop
      vertex 15.6408 33.8913 0
      vertex 15.4333 34.0022 2
      vertex 15.6408 33.8913 2
    endloop
  endfacet
  facet normal 0.47136 0.881941 0
    outer loop
      vertex 15.4333 34.0022 2
      vertex 15.6408 33.8913 0
      vertex 15.4333 34.0022 0
    endloop
  endfacet
  facet normal 0.634649 0.772801 -0
    outer loop
      vertex 15.4333 34.0022 0
      vertex 15.2515 34.1515 2
      vertex 15.4333 34.0022 2
    endloop
  endfacet
  facet normal 0.634649 0.772801 0
    outer loop
      vertex 15.2515 34.1515 2
      vertex 15.4333 34.0022 0
      vertex 15.2515 34.1515 0
    endloop
  endfacet
  facet normal 1 0 0
    outer loop
      vertex 14.9 43.3 2
      vertex 14.9 45.3 12.5
      vertex 14.9 43.3 12.5
    endloop
  endfacet
  facet normal 1 0 0
    outer loop
      vertex 14.9 45.3 12.5
      vertex 14.9 43.3 2
      vertex 14.9 45.3 0
    endloop
  endfacet
  facet normal 1 0 0
    outer loop
      vertex 14.9 35 0
      vertex 14.9 43.3 2
      vertex 14.9 35 2
    endloop
  endfacet
  facet normal 1 0 0
    outer loop
      vertex 14.9 43.3 2
      vertex 14.9 35 0
      vertex 14.9 45.3 0
    endloop
  endfacet
  facet normal 0.28996 0.957039 -0
    outer loop
      vertex 15.8659 33.8231 0
      vertex 15.6408 33.8913 2
      vertex 15.8659 33.8231 2
    endloop
  endfacet
  facet normal 0.28996 0.957039 0
    outer loop
      vertex 15.6408 33.8913 2
      vertex 15.8659 33.8231 0
      vertex 15.6408 33.8913 0
    endloop
  endfacet
  facet normal -1 0 0
    outer loop
      vertex 35.1 45.3 0
      vertex 35.1 43.3 2
      vertex 35.1 45.3 12.5
    endloop
  endfacet
  facet normal -1 0 0
    outer loop
      vertex 35.1 35 0
      vertex 35.1 43.3 2
      vertex 35.1 45.3 0
    endloop
  endfacet
  facet normal -1 -0 0
    outer loop
      vertex 35.1 43.3 2
      vertex 35.1 35 0
      vertex 35.1 35 2
    endloop
  endfacet
  facet normal -1 -0 0
    outer loop
      vertex 35.1 45.3 12.5
      vertex 35.1 43.3 2
      vertex 35.1 43.3 12.5
    endloop
  endfacet
  facet normal 0.995167 0.0981989 0
    outer loop
      vertex 14.9231 34.7659 2
      vertex 14.9 35 0
      vertex 14.9 35 2
    endloop
  endfacet
  facet normal 0.995167 0.0981989 0
    outer loop
      vertex 14.9 35 0
      vertex 14.9231 34.7659 2
      vertex 14.9231 34.7659 0
    endloop
  endfacet
  facet normal 0.0981989 0.995167 -0
    outer loop
      vertex 16.1 33.8 0
      vertex 15.8659 33.8231 2
      vertex 16.1 33.8 2
    endloop
  endfacet
  facet normal 0.0981989 0.995167 0
    outer loop
      vertex 15.8659 33.8231 2
      vertex 16.1 33.8 0
      vertex 15.8659 33.8231 0
    endloop
  endfacet
  facet normal -0.881941 0.47136 0
    outer loop
      vertex 34.8978 34.3333 0
      vertex 35.0087 34.5408 2
      vertex 35.0087 34.5408 0
    endloop
  endfacet
  facet normal -0.881941 0.47136 0
    outer loop
      vertex 35.0087 34.5408 2
      vertex 34.8978 34.3333 0
      vertex 34.8978 34.3333 2
    endloop
  endfacet
  facet normal -0.47136 0.881941 0
    outer loop
      vertex 34.5667 34.0022 0
      vertex 34.3592 33.8913 2
      vertex 34.5667 34.0022 2
    endloop
  endfacet
  facet normal -0.47136 0.881941 0
    outer loop
      vertex 34.3592 33.8913 2
      vertex 34.5667 34.0022 0
      vertex 34.3592 33.8913 0
    endloop
  endfacet
  facet normal 0.772801 0.634649 0
    outer loop
      vertex 15.2515 34.1515 2
      vertex 15.1022 34.3333 0
      vertex 15.1022 34.3333 2
    endloop
  endfacet
  facet normal 0.772801 0.634649 0
    outer loop
      vertex 15.1022 34.3333 0
      vertex 15.2515 34.1515 2
      vertex 15.2515 34.1515 0
    endloop
  endfacet
  facet normal 0.881941 0.47136 0
    outer loop
      vertex 15.1022 34.3333 2
      vertex 14.9913 34.5408 0
      vertex 14.9913 34.5408 2
    endloop
  endfacet
  facet normal 0.881941 0.47136 0
    outer loop
      vertex 14.9913 34.5408 0
      vertex 15.1022 34.3333 2
      vertex 15.1022 34.3333 0
    endloop
  endfacet
  facet normal -0.957039 0.28996 0
    outer loop
      vertex 35.0087 34.5408 0
      vertex 35.0769 34.7659 2
      vertex 35.0769 34.7659 0
    endloop
  endfacet
  facet normal -0.957039 0.28996 0
    outer loop
      vertex 35.0769 34.7659 2
      vertex 35.0087 34.5408 0
      vertex 35.0087 34.5408 2
    endloop
  endfacet
  facet normal 0.957039 0.28996 0
    outer loop
      vertex 14.9913 34.5408 2
      vertex 14.9231 34.7659 0
      vertex 14.9231 34.7659 2
    endloop
  endfacet
  facet normal 0.957039 0.28996 0
    outer loop
      vertex 14.9231 34.7659 0
      vertex 14.9913 34.5408 2
      vertex 14.9913 34.5408 0
    endloop
  endfacet
  facet normal -0.995167 0.0981989 0
    outer loop
      vertex 35.0769 34.7659 0
      vertex 35.1 35 2
      vertex 35.1 35 0
    endloop
  endfacet
  facet normal -0.995167 0.0981989 0
    outer loop
      vertex 35.1 35 2
      vertex 35.0769 34.7659 0
      vertex 35.0769 34.7659 2
    endloop
  endfacet
  facet normal -0.772801 0.634649 0
    outer loop
      vertex 34.7485 34.1515 0
      vertex 34.8978 34.3333 2
      vertex 34.8978 34.3333 0
    endloop
  endfacet
  facet normal -0.772801 0.634649 0
    outer loop
      vertex 34.8978 34.3333 2
      vertex 34.7485 34.1515 0
      vertex 34.7485 34.1515 2
    endloop
  endfacet
  facet normal -0.634649 0.772801 0
    outer loop
      vertex 34.7485 34.1515 0
      vertex 34.5667 34.0022 2
      vertex 34.7485 34.1515 2
    endloop
  endfacet
  facet normal -0.634649 0.772801 0
    outer loop
      vertex 34.5667 34.0022 2
      vertex 34.7485 34.1515 0
      vertex 34.5667 34.0022 0
    endloop
  endfacet
endsolid OpenSCAD_Model
